<svg xmlns="http://www.w3.org/2000/svg" version="1.1" xmlns:xlink="http://www.w3.org/1999/xlink" xmlns:svgjs="http://svgjs.dev/svgjs" width="1440" height="560" preserveAspectRatio="none" viewBox="0 0 1440 560"><g mask="url(&quot;#SvgjsMask1001&quot;)" fill="none"><rect width="1440" height="560" x="0" y="0" fill="rgba(29, 33, 38, 1)"></rect><path d="M255.5 0C288.38 38.37 249.29 77.86 260 140C261.54 148.92 270.16 142.12 280 142.12C282.66 142.12 284.16 142.55 285 140C307.5 71.49 285.48 42.71 326.67 0C352.98 -27.29 373.34 0 420 0C490 0 490 0 560 0C630 0 630 0 700 0C770 0 770 0 840 0C910 0 910 0 980 0C1050 0 1050 0 1120 0C1190 0 1190 0 1260 0C1330 0 1330 0 1400 0C1470 0 1505 -35 1540 0C1575 35 1540 70 1540 140C1540 210 1540 210 1540 280C1540 350 1540 350 1540 420C1540 490 1575 525 1540 560C1505 595 1470 560 1400 560C1349.84 560 1299.67 580.07 1299.67 560C1299.67 532.29 1351.59 513.85 1400 464.44C1420.17 443.85 1436.84 441.24 1436.84 420C1436.84 401.07 1423.73 387.91 1400 384.1C1335.31 373.71 1325.67 377.73 1260 391.59C1240.6 395.68 1234.86 400.85 1229.85 420C1212.83 485.05 1248.59 518.38 1215.93 560C1193.66 588.38 1167.97 560 1120 560C1053.59 560 1051.36 564.43 987.18 560C981.36 559.6 983.18 550.34 980 550.34C977.14 550.34 980.29 559.64 975.09 560C910.29 564.47 907.55 560 840 560C770 560 770 560 700 560C630 560 630 560 560 560C490 560 490 560 420 560C350 560 350 560 280 560C210 560 210 560 140 560C70 560 35 595 0 560C-35 525 0 490 0 420C0 350 0 350 0 280C0 210 0 210 0 140C0 70 -35 35 0 0C35 -35 70 0 140 0C197.75 0 228.38 -31.63 255.5 0" stroke="rgba(51, 121, 194, 0.58)" stroke-width="2"></path><path d="M560 92.54C530.57 92.54 500.43 118.04 500.43 140C500.43 160.19 530.47 176.84 560 176.84C588.26 176.84 616 160.12 616 140C616 117.97 588.36 92.54 560 92.54" stroke="rgba(51, 121, 194, 0.58)" stroke-width="2"></path><path d="M420 227.91C405.52 227.91 393.41 251.74 392.35 280C389.82 347.79 399.94 351.28 412.82 420C413.77 425.07 414.96 426.54 420 427.57C488.55 441.54 494.4 452.9 560 450C580.07 449.11 591.34 434.94 591.34 420C591.34 405.15 575.25 405.64 560 390.42C505.13 335.64 501.42 338.4 451.11 280C431.42 257.15 434.9 227.91 420 227.91" stroke="rgba(51, 121, 194, 0.58)" stroke-width="2"></path><path d="M700 235.45C681.35 235.45 672 259.09 672 280C672 296.22 683.08 309.7 700 309.7C729.75 309.7 765.33 297.66 765.33 280C765.33 260.54 728.02 235.45 700 235.45" stroke="rgba(51, 121, 194, 0.58)" stroke-width="2"></path><path d="M840 344C817.6 344 802.54 385.29 802.54 420C802.54 441.27 819.39 455.95 840 455.95C867.03 455.95 897.83 443.3 897.83 420C897.83 387.32 865.25 344 840 344" stroke="rgba(51, 121, 194, 0.58)" stroke-width="2"></path><path d="M140 41.48C77.45 72.28 44.68 95.97 0 82.73C-25.32 75.23 -26 15.36 0 0C44 -26 70 0 140 0C154 0 168 -7.44 168 0C168 13.3 161.45 30.92 140 41.48" stroke="rgba(51, 121, 194, 0.58)" stroke-width="2"></path><path d="M410 140C410 130.67 415.89 118.46 420 118.46C423.87 118.46 425.96 129.95 425.96 140C425.96 143.97 423.39 146.51 420 146.51C415.41 146.51 410 144.69 410 140" stroke="rgba(51, 121, 194, 0.58)" stroke-width="2"></path><path d="M560 33.22C519.67 33.22 481.6 8.65 481.6 0C481.6 -7.96 520.8 0 560 0C621.25 0 682.5 -8.16 682.5 0C682.5 8.45 620.12 33.22 560 33.22" stroke="rgba(51, 121, 194, 0.58)" stroke-width="2"></path><path d="M686 140C686 92.1 688.63 88.71 700 40C704.97 18.71 700 5.34 718.67 0C770 -14.66 779.34 0 840 0C910 0 910 0 980 0C1050 0 1050 0 1120 0C1190 0 1190 0 1260 0C1305.86 0 1326.41 -27.08 1351.72 0C1391.84 42.92 1368.96 71.18 1390.87 140C1393.1 147.01 1394.38 151.67 1400 151.67C1408.49 151.67 1415.66 150.22 1419.09 140C1441.11 74.39 1413.6 43.2 1450.91 0C1474.06 -26.8 1522.68 -27.22 1540 0C1567.22 42.78 1540 70 1540 140C1540 210 1540 210 1540 280C1540 350 1540 350 1540 420C1540 480.28 1553.56 540.56 1540 540.56C1525 540.56 1520.37 473.9 1482.89 420C1450.37 373.24 1450.43 357.13 1400 339.23C1338.99 317.57 1324.71 357.58 1260 340.87C1210.03 327.97 1208.06 317.48 1170.64 280C1138.06 247.38 1144.43 200.67 1120 200.67C1096.23 200.67 1074.23 242.26 1074.23 280C1074.23 309.6 1098.91 306.34 1120 335.35C1149.8 376.34 1169.52 373.22 1176 420C1185.08 485.54 1174.08 502.57 1151.11 560C1146.08 572.57 1135.55 560 1120 560C1098.46 560 1091.59 573.66 1076.92 560C1021.59 508.49 1028.12 495.06 980 429.66C976.62 425.06 977.32 424.58 973.91 420C921.64 349.75 920.79 350.35 868.64 280C853.84 260.03 859.71 253.85 840 239.35C775.39 191.81 768.14 199.87 700 155.91C691.14 150.19 686 150.05 686 140" stroke="rgba(51, 121, 194, 0.58)" stroke-width="2"></path><path d="M0 249.57C57.75 224.09 69.61 231.92 140 218.24C209.61 204.71 220.97 177.72 280 195.15C325.54 208.6 329.94 230.92 349.14 280C373.92 343.34 344.87 356.54 367.95 420C380.3 453.97 386.67 460.98 420 474.86C482.69 500.98 498.35 515.13 560 500C610.14 487.7 602.28 460.5 643.58 420C672.28 391.86 672.2 362.73 700 362.73C727.03 362.73 725.66 392.31 753.24 420C795.66 462.57 794.77 463.77 840 503.24C874.99 533.77 913.68 544.16 913.68 560C913.68 572.54 876.84 560 840 560C770 560 770 560 700 560C630 560 630 560 560 560C490 560 490 560 420 560C350 560 350 560 280 560C210 560 210 560 140 560C70 560 44.64 585.36 0 560C-25.36 545.59 -24.22 503.7 0 480.45C45.78 436.5 71.45 454.62 140 425.6C142.85 424.39 142.8 422.91 142.8 420C142.8 415.73 143.6 414.04 140 411.25C72.2 358.63 59.91 365.34 0 309.17C-10.09 299.71 0 294.59 0 280C0 264.78 -12.25 254.97 0 249.57" stroke="rgba(51, 121, 194, 0.58)" stroke-width="2"></path><path d="M499.72 280C499.72 250.93 529.66 222.89 560 222.89C590.8 222.89 622 250.92 622 280C622 310.04 590.79 341.13 560 341.13C529.65 341.13 499.72 310.05 499.72 280" stroke="rgba(51, 121, 194, 0.58)" stroke-width="2"></path><path d="M1358 560C1358 548.4 1374.83 520 1400 520C1450.62 520 1509.57 549.69 1509.57 560C1509.57 569.69 1454.78 560 1400 560C1379 560 1358 568.4 1358 560" stroke="rgba(51, 121, 194, 0.58)" stroke-width="2"></path><path d="M7.78 0C7.78 0.83 2.82 3.18 0 3.18C-1.07 3.18 -1.13 0.46 0 0C2.76 -1.13 7.78 -0.76 7.78 0" stroke="rgba(51, 121, 194, 0.58)" stroke-width="2"></path><path d="M980 52.5C955 46.37 952 17.85 952 0C952 -8.4 966 0 980 0C1050 0 1050 0 1120 0C1190 0 1190 0 1260 0C1275.69 0 1286.42 -12.67 1291.38 0C1313.81 57.33 1287.27 76.96 1314.78 140C1341.58 201.41 1344.78 230.17 1400 248.89C1457.39 268.35 1491.48 205.58 1540 216.36C1561.48 221.13 1540 248.18 1540 280C1540 350 1540 350 1540 420C1540 431.66 1542.62 443.33 1540 443.33C1537.1 443.33 1537.73 429.34 1528.95 420C1467.73 354.86 1475.63 330.88 1400 294.36C1341.16 265.95 1328.62 296.5 1260 290.14C1251.17 289.32 1249.45 287.77 1245.11 280C1207.45 212.7 1212.21 209.12 1176 140C1149.66 89.71 1163.82 60.74 1120 41.18C1065.82 16.99 1039 66.96 980 52.5" stroke="rgba(51, 121, 194, 0.58)" stroke-width="2"></path><path d="M1540 87.5C1533.51 87.5 1514.55 34.2 1514.55 0C1514.55 -9.55 1537.13 -9.86 1540 0C1549.86 33.89 1546.23 87.5 1540 87.5" stroke="rgba(51, 121, 194, 0.58)" stroke-width="2"></path><path d="M196 280C209.08 246.57 242.27 248.18 280 248.18C297.24 248.18 301.07 260.63 305.93 280C322.61 346.54 294.54 359.41 323.08 420C351.57 480.49 361.17 489.88 420 522.16C479.63 554.88 500.48 572.04 560 550C638.39 520.96 627.97 485.06 695.82 420C697.97 417.94 697.94 415.76 700 415.76C702 415.76 701.86 417.99 703.94 420C771.86 485.38 771.46 485.86 840 550.54C845.63 555.86 852.28 557.36 852.28 560C852.28 562.09 846.14 560 840 560C770 560 770 560 700 560C630 560 630 560 560 560C490 560 490 560 420 560C350 560 350 560 280 560C220 560 174.95 591.15 160 560C141.35 521.15 203.53 492.08 212.8 420C221.53 352.08 175.48 332.48 196 280" stroke="rgba(51, 121, 194, 0.58)" stroke-width="2"></path><path d="M548.33 280C548.33 274.38 554.13 268.95 560 268.95C565.96 268.95 572 274.37 572 280C572 285.81 565.96 291.83 560 291.83C554.12 291.83 548.33 285.82 548.33 280" stroke="rgba(51, 121, 194, 0.58)" stroke-width="2"></path><path d="M948.18 280C948.18 235.86 965.2 186.67 980 186.67C994.57 186.67 1006.92 235.26 1006.92 280C1006.92 303.14 994.29 322.42 980 322.42C964.92 322.42 948.18 303.74 948.18 280" stroke="rgba(51, 121, 194, 0.58)" stroke-width="2"></path><path d="M1114.17 420C1114.17 417.57 1117.48 416.74 1120 416.74C1121.47 416.74 1122.15 418.17 1122.15 420C1122.15 424.8 1121.87 430 1120 430C1117.88 430 1114.17 424.2 1114.17 420" stroke="rgba(51, 121, 194, 0.58)" stroke-width="2"></path></g><defs><mask id="SvgjsMask1001"><rect width="1440" height="560" fill="#ffffff"></rect></mask></defs></svg>