<svg id="canvas" height="auto" xmlns="http://www.w3.org/2000/svg" version="1.1" xmlns:xlink="http://www.w3.org/1999/xlink" viewBox="0 0 900 512" fill="#0f2454" width="auto" style="width: auto; height: auto;"><rect width="900" height="512" fill="#0f2454"/><g filter="url(#SvgjsFilter1023)"><line x1="967.7219330876374" y1="256" x2="450" y2="256" stroke-width="16" stroke="#0a4e42ff"/><line x1="963.6395410091955" y1="320.88776396103594" x2="450" y2="256" stroke-width="16" stroke="#10816dff"/><line x1="951.4567465356495" y1="384.75220912233505" x2="450" y2="256" stroke-width="16" stroke="#17b498ff"/><line x1="931.3656796134958" y1="446.5861550329333" x2="450" y2="256" stroke-width="16" stroke="#1ee7c3ff"/><line x1="903.6831883699188" y1="505.41444342801174" x2="450" y2="256" stroke-width="16" stroke="#0a4e42ff"/><line x1="868.845842228548" y1="560.3093170572638" x2="450" y2="256" stroke-width="16" stroke="#10816dff"/><line x1="827.4030469488548" y1="610.4050509709484" x2="450" y2="256" stroke-width="16" stroke="#17b498ff"/><line x1="780.008380169126" y1="654.9116055195057" x2="450" y2="256" stroke-width="16" stroke="#1ee7c3ff"/><line x1="727.4092840966792" y1="693.127085750778" x2="450" y2="256" stroke-width="16" stroke="#0a4e42ff"/><line x1="670.4352778977542" y1="724.4488107126967" x2="450" y2="256" stroke-width="16" stroke="#10816dff"/><line x1="609.9848756847293" y1="748.382818091921" x2="450" y2="256" stroke-width="16" stroke="#17b498ff"/><line x1="547.011416411824" y1="764.5516542945975" x2="450" y2="256" stroke-width="16" stroke="#1ee7c3ff"/><line x1="482.5080291502931" y1="772.7003271150152" x2="450" y2="256" stroke-width="16" stroke="#0a4e42ff"/><line x1="417.49197084970683" y1="772.7003271150152" x2="450" y2="256" stroke-width="16" stroke="#10816dff"/><line x1="352.98858358817586" y1="764.5516542945974" x2="450" y2="256" stroke-width="16" stroke="#17b498ff"/><line x1="290.01512431527055" y1="748.382818091921" x2="450" y2="256" stroke-width="16" stroke="#1ee7c3ff"/><line x1="229.56472210224578" y1="724.4488107126967" x2="450" y2="256" stroke-width="16" stroke="#0a4e42ff"/><line x1="172.59071590332059" y1="693.1270857507778" x2="450" y2="256" stroke-width="16" stroke="#10816dff"/><line x1="119.99161983087401" y1="654.9116055195057" x2="450" y2="256" stroke-width="16" stroke="#17b498ff"/><line x1="72.59695305114508" y1="610.4050509709482" x2="450" y2="256" stroke-width="16" stroke="#1ee7c3ff"/><line x1="31.15415777145205" y1="560.3093170572638" x2="450" y2="256" stroke-width="16" stroke="#0a4e42ff"/><line x1="-3.683188369918753" y1="505.4144434280116" x2="450" y2="256" stroke-width="16" stroke="#10816dff"/><line x1="-31.3656796134959" y1="446.58615503293316" x2="450" y2="256" stroke-width="16" stroke="#17b498ff"/><line x1="-51.456746535649415" y1="384.75220912233505" x2="450" y2="256" stroke-width="16" stroke="#1ee7c3ff"/><line x1="-63.639541009195455" y1="320.8877639610359" x2="450" y2="256" stroke-width="16" stroke="#0a4e42ff"/><line x1="-67.72193308763735" y1="255.99999999999983" x2="450" y2="256" stroke-width="16" stroke="#10816dff"/><line x1="-63.639541009195455" y1="191.11223603896403" x2="450" y2="256" stroke-width="16" stroke="#17b498ff"/><line x1="-51.456746535649415" y1="127.24779087766484" x2="450" y2="256" stroke-width="16" stroke="#1ee7c3ff"/><line x1="-31.365679613495786" y1="65.41384496706655" x2="450" y2="256" stroke-width="16" stroke="#0a4e42ff"/><line x1="-3.683188369918696" y1="6.585556571988263" x2="450" y2="256" stroke-width="16" stroke="#10816dff"/><line x1="31.154157771452105" y1="-48.30931705726391" x2="450" y2="256" stroke-width="16" stroke="#17b498ff"/><line x1="72.59695305114514" y1="-98.40505097094837" x2="450" y2="256" stroke-width="16" stroke="#1ee7c3ff"/><line x1="119.99161983087413" y1="-142.9116055195057" x2="450" y2="256" stroke-width="16" stroke="#0a4e42ff"/><line x1="172.59071590332087" y1="-181.127085750778" x2="450" y2="256" stroke-width="16" stroke="#10816dff"/><line x1="229.56472210224607" y1="-212.44881071269685" x2="450" y2="256" stroke-width="16" stroke="#17b498ff"/><line x1="290.01512431527055" y1="-236.38281809192097" x2="450" y2="256" stroke-width="16" stroke="#1ee7c3ff"/><line x1="352.98858358817597" y1="-252.55165429459743" x2="450" y2="256" stroke-width="16" stroke="#0a4e42ff"/><line x1="417.49197084970695" y1="-260.70032711501517" x2="450" y2="256" stroke-width="16" stroke="#10816dff"/><line x1="482.50802915029334" y1="-260.70032711501517" x2="450" y2="256" stroke-width="16" stroke="#17b498ff"/><line x1="547.0114164118243" y1="-252.55165429459737" x2="450" y2="256" stroke-width="16" stroke="#1ee7c3ff"/><line x1="609.9848756847292" y1="-236.38281809192102" x2="450" y2="256" stroke-width="16" stroke="#0a4e42ff"/><line x1="670.4352778977542" y1="-212.44881071269674" x2="450" y2="256" stroke-width="16" stroke="#10816dff"/><line x1="727.4092840966794" y1="-181.12708575077784" x2="450" y2="256" stroke-width="16" stroke="#17b498ff"/><line x1="780.0083801691261" y1="-142.91160551950554" x2="450" y2="256" stroke-width="16" stroke="#1ee7c3ff"/><line x1="827.403046948855" y1="-98.40505097094814" x2="450" y2="256" stroke-width="16" stroke="#0a4e42ff"/><line x1="868.8458422285482" y1="-48.30931705726351" x2="450" y2="256" stroke-width="16" stroke="#10816dff"/><line x1="903.6831883699188" y1="6.585556571988292" x2="450" y2="256" stroke-width="16" stroke="#17b498ff"/><line x1="931.3656796134959" y1="65.41384496706678" x2="450" y2="256" stroke-width="16" stroke="#1ee7c3ff"/><line x1="951.4567465356495" y1="127.24779087766512" x2="450" y2="256" stroke-width="16" stroke="#0a4e42ff"/><line x1="963.6395410091955" y1="191.11223603896428" x2="450" y2="256" stroke-width="16" stroke="#10816dff"/><line x1="967.7219330876374" y1="256.00000000000034" x2="450" y2="256" stroke-width="16" stroke="#17b498ff"/></g><defs><filter id="SvgjsFilter1023"><feTurbulence id="SvgjsFeTurbulence1021" result="SvgjsFeTurbulence1021" in="SourceGraphic" type="fractalNoise" stitchTiles="stitch" seed="82" numOctaves="1" baseFrequency="0.02"/><feDisplacementMap id="SvgjsFeDisplacementMap1022" result="SvgjsFeDisplacementMap1022" in="SourceGraphic" scale="200" in2="turbulence"/></filter></defs></svg>