<svg xmlns="http://www.w3.org/2000/svg" viewBox="0 0 500 500"><g id="freepik--Shadow--inject-188"><polygon points="381.79 408.68 307.67 389.68 377.64 389.68 453.45 408.68 381.79 408.68" style="fill:#90CAF9"></polygon><polygon points="117.71 408.68 191.83 389.68 121.87 389.68 46.05 408.68 117.71 408.68" style="fill:#90CAF9"></polygon></g><g id="freepik--Clouds--inject-188"><path d="M253.17,329.64s-.07-.35-.18-1" style="fill:none;stroke:#2e353a;stroke-miterlimit:10"></path><path d="M252.66,326.68c-1.07-6.93-2.88-24.22,3.91-31.94,8.61-9.77,18.93-1.4,47.69,0s43.56-2.79,43.86-27.45S331.55,241,331.55,241H320.89" style="fill:none;stroke:#2e353a;stroke-miterlimit:10;stroke-dasharray:2.007730007171631,2.007730007171631"></path><line x1="319.88" y1="241.04" x2="318.88" y2="241.04" style="fill:none;stroke:#2e353a;stroke-miterlimit:10"></line><line x1="318.88" y1="165.29" x2="319.88" y2="165.29" style="fill:none;stroke:#2e353a;stroke-miterlimit:10"></line><path d="M321.88,165.29h36s10.85.94,10.4,13.46S349.78,203,350.93,228s43.81,21.27,49.62,46.3S363.68,298.08,359.71,311a22.11,22.11,0,0,0-1.8,9.18c0,4.2,0,14.18,0,18.45" style="fill:none;stroke:#2e353a;stroke-miterlimit:10;stroke-dasharray:1.9997600317001343,1.9997600317001343"></path><path d="M357.91,339.64v1" style="fill:none;stroke:#2e353a;stroke-miterlimit:10"></path><line x1="186.36" y1="94.43" x2="185.36" y2="94.43" style="fill:none;stroke:#2e353a;stroke-miterlimit:10"></line><path d="M183.37,94.43H165.74s-48-.55-48,40c0,18.77,6.52,32.8,25.84,55.86s19,95.14,12.72,108.07-19.6,11-24.28,18c0,0-3.37,3.53-3.66,7.84-.23,3.39-.1,14.5,0,19.06" style="fill:none;stroke:#2e353a;stroke-miterlimit:10;stroke-dasharray:1.9882500171661377,1.9882500171661377"></path><path d="M128.31,344.31c0,.63,0,1,0,1" style="fill:none;stroke:#2e353a;stroke-miterlimit:10"></path><path d="M197.15,146.64A12.29,12.29,0,0,0,191,148.3a16.49,16.49,0,0,0,.26-2.91,17,17,0,0,0-33.71-3.14,15,15,0,1,0-5.3,29.09h44.91a12.35,12.35,0,0,0,0-24.7Z" style="fill:#fff;stroke:#2e353a;stroke-miterlimit:10"></path><path d="M387,196.82a13.13,13.13,0,0,0-6.56,1.76,18.49,18.49,0,0,0,.27-3.09,18.1,18.1,0,0,0-35.89-3.34,16,16,0,1,0-5.65,31H387a13.15,13.15,0,0,0,0-26.3Z" style="fill:#fff;stroke:#2e353a;stroke-miterlimit:10"></path><line x1="378.5" y1="226.5" x2="382.5" y2="226.5" style="fill:none;stroke:#2e353a;stroke-linecap:round;stroke-linejoin:round"></line><line x1="359" y1="226.5" x2="373" y2="226.5" style="fill:none;stroke:#2e353a;stroke-linecap:round;stroke-linejoin:round"></line><path d="M345.76,178.19a13,13,0,0,1,7.24-3" style="fill:none;stroke:#2e353a;stroke-linecap:round;stroke-linejoin:round"></path><path d="M341,185.5a11.87,11.87,0,0,1,2-4.38" style="fill:none;stroke:#2e353a;stroke-linecap:round;stroke-linejoin:round"></path><path d="M189.15,257.7a19.72,19.72,0,0,0-9.86,2.65,26.37,26.37,0,0,0,.41-4.65,27.19,27.19,0,0,0-53.92-5,24,24,0,1,0-8.48,46.53h71.85a19.76,19.76,0,0,0,0-39.51Z" style="fill:#fff;stroke:#2e353a;stroke-miterlimit:10"></path><path d="M98.85,295.22A25.24,25.24,0,0,0,102,297" style="fill:none;stroke:#2e353a;stroke-linecap:round;stroke-linejoin:round"></path><path d="M91,286a19,19,0,0,0,4.1,6.09" style="fill:none;stroke:#2e353a;stroke-linecap:round;stroke-linejoin:round"></path><path d="M135.33,227a22.88,22.88,0,0,1,14.17-4" style="fill:none;stroke:#2e353a;stroke-linecap:round;stroke-linejoin:round"></path><path d="M131,231a16.32,16.32,0,0,1,2.36-2.49" style="fill:none;stroke:#2e353a;stroke-linecap:round;stroke-linejoin:round"></path></g><g id="freepik--device-1--inject-188"><rect x="314.13" y="159.76" width="4.75" height="12.56" style="fill:#2e353a;stroke:#2e353a;stroke-miterlimit:10"></rect><rect x="314.13" y="233.85" width="4.75" height="12.56" style="fill:#2e353a;stroke:#2e353a;stroke-miterlimit:10"></rect><rect x="186.36" y="87.09" width="4.75" height="12.56" style="fill:#2e353a;stroke:#2e353a;stroke-miterlimit:10"></rect><rect x="186.36" y="197.28" width="4.75" height="12.56" style="fill:#2e353a;stroke:#2e353a;stroke-miterlimit:10"></rect><rect x="190.66" y="80.14" width="125.03" height="27.08" style="fill:#fff;stroke:#2e353a;stroke-miterlimit:10"></rect><rect x="196.67" y="87.05" width="86.17" height="13.26" style="fill:#90CAF9;stroke:#2e353a;stroke-miterlimit:10"></rect><circle cx="294.51" cy="93.1" r="3.34" style="fill:#fff;stroke:#2e353a;stroke-miterlimit:10"></circle><path d="M310.94,93.1a3.34,3.34,0,1,0-3.34,3.34A3.34,3.34,0,0,0,310.94,93.1Z" style="fill:#90CAF9;stroke:#2e353a;stroke-miterlimit:10"></path><circle cx="275.02" cy="93.1" r="3.34" style="fill:#fff;stroke:#2e353a;stroke-miterlimit:10"></circle><rect x="195.41" y="107.22" width="115.54" height="9.27" style="fill:#2e353a;stroke:#2e353a;stroke-miterlimit:10"></rect><rect x="190.66" y="116.49" width="125.03" height="27.08" style="fill:#fff;stroke:#2e353a;stroke-miterlimit:10"></rect><rect x="196.67" y="123.4" width="86.17" height="13.26" style="fill:#90CAF9;stroke:#2e353a;stroke-miterlimit:10"></rect><circle cx="294.51" cy="129.46" r="3.34" style="fill:#90CAF9;stroke:#2e353a;stroke-miterlimit:10"></circle><path d="M310.94,129.46a3.34,3.34,0,1,0-3.34,3.34A3.33,3.33,0,0,0,310.94,129.46Z" style="fill:#fff;stroke:#2e353a;stroke-miterlimit:10"></path><circle cx="275.02" cy="129.46" r="3.34" style="fill:#fff;stroke:#2e353a;stroke-miterlimit:10"></circle><rect x="195.41" y="143.58" width="115.54" height="9.27" style="fill:#2e353a;stroke:#2e353a;stroke-miterlimit:10"></rect><rect x="190.66" y="152.85" width="125.03" height="27.08" style="fill:#fff;stroke:#2e353a;stroke-miterlimit:10"></rect><rect x="196.67" y="159.76" width="86.17" height="13.26" style="fill:#90CAF9;stroke:#2e353a;stroke-miterlimit:10"></rect><circle cx="294.51" cy="165.81" r="3.34" style="fill:#fff;stroke:#2e353a;stroke-miterlimit:10"></circle><path d="M310.94,165.81a3.34,3.34,0,1,0-3.34,3.34A3.34,3.34,0,0,0,310.94,165.81Z" style="fill:#90CAF9;stroke:#2e353a;stroke-miterlimit:10"></path><circle cx="275.02" cy="165.81" r="3.34" style="fill:#fff;stroke:#2e353a;stroke-miterlimit:10"></circle><rect x="195.41" y="179.93" width="115.54" height="9.27" style="fill:#2e353a;stroke:#2e353a;stroke-miterlimit:10"></rect><rect x="190.66" y="189.2" width="125.03" height="27.08" style="fill:#fff;stroke:#2e353a;stroke-miterlimit:10"></rect><rect x="196.67" y="196.11" width="86.17" height="13.26" style="fill:#90CAF9;stroke:#2e353a;stroke-miterlimit:10"></rect><circle cx="294.51" cy="202.17" r="3.34" style="fill:#90CAF9;stroke:#2e353a;stroke-miterlimit:10"></circle><path d="M310.94,202.17a3.34,3.34,0,1,0-3.34,3.34A3.33,3.33,0,0,0,310.94,202.17Z" style="fill:#fff;stroke:#2e353a;stroke-miterlimit:10"></path><circle cx="275.02" cy="202.17" r="3.34" style="fill:#fff;stroke:#2e353a;stroke-miterlimit:10"></circle><rect x="195.41" y="216.29" width="115.54" height="9.27" style="fill:#2e353a;stroke:#2e353a;stroke-miterlimit:10"></rect><rect x="190.66" y="225.56" width="125.03" height="27.08" style="fill:#fff;stroke:#2e353a;stroke-miterlimit:10"></rect><rect x="196.67" y="232.47" width="86.17" height="13.26" style="fill:#90CAF9;stroke:#2e353a;stroke-miterlimit:10"></rect><circle cx="294.51" cy="238.52" r="3.34" style="fill:#fff;stroke:#2e353a;stroke-miterlimit:10"></circle><path d="M310.94,238.52a3.34,3.34,0,1,0-3.34,3.34A3.34,3.34,0,0,0,310.94,238.52Z" style="fill:#90CAF9;stroke:#2e353a;stroke-miterlimit:10"></path><circle cx="275.02" cy="238.52" r="3.34" style="fill:#fff;stroke:#2e353a;stroke-miterlimit:10"></circle><line x1="261.5" y1="76.5" x2="268.5" y2="76.5" style="fill:none;stroke:#2e353a;stroke-linecap:round;stroke-linejoin:round"></line><line x1="213" y1="76.5" x2="253.5" y2="76.5" style="fill:none;stroke:#2e353a;stroke-linecap:round;stroke-linejoin:round"></line><line x1="185.5" y1="241" x2="185.5" y2="246" style="fill:none;stroke:#2e353a;stroke-linecap:round;stroke-linejoin:round"></line><line x1="185.5" y1="225.5" x2="185.5" y2="236" style="fill:none;stroke:#2e353a;stroke-linecap:round;stroke-linejoin:round"></line></g><g id="freepik--device-2--inject-188"><path d="M369.91,133.09l-7-13.85a.76.76,0,1,0-1.36.67l6.69,14A1.06,1.06,0,0,0,368,135l7.08,13.27c.19.38.79.46,1.36.18s.87-.81.68-1.18l-6.2-13.71A1,1,0,0,0,369.91,133.09Z" style="fill:#2e353a"></path><path d="M408.67,133.09l7.05-13.85a.75.75,0,0,1,1-.35.77.77,0,0,1,.35,1l-6.7,14a1,1,0,0,1,.22,1.09l-7.08,13.27c-.19.38-.8.46-1.36.18s-.87-.81-.69-1.18l6.21-13.71A1,1,0,0,1,408.67,133.09Z" style="fill:#2e353a"></path><polygon points="411.35 148.87 367.38 148.87 370.68 143.27 408.05 143.27 411.35 148.87" style="fill:#fff;stroke:#2e353a;stroke-linecap:round;stroke-linejoin:round"></polygon><rect x="367.38" y="148.87" width="43.96" height="5.6" style="fill:#fff;stroke:#2e353a;stroke-linecap:round;stroke-linejoin:round"></rect><path d="M388.6,152.91H371.7a1.24,1.24,0,0,1-1.23-1.24h0a1.23,1.23,0,0,1,1.23-1.23h16.9a1.23,1.23,0,0,1,1.23,1.23h0A1.24,1.24,0,0,1,388.6,152.91Z" style="fill:#fff;stroke:#2e353a;stroke-miterlimit:10"></path><circle cx="398.83" cy="151.52" r="1.08" style="fill:#fff;stroke:#2e353a;stroke-miterlimit:10"></circle><path d="M404.39,151.52a1.09,1.09,0,1,0-1.09,1.09A1.08,1.08,0,0,0,404.39,151.52Z" style="fill:#fff;stroke:#2e353a;stroke-miterlimit:10"></path><circle cx="407.78" cy="151.52" r="1.08" style="fill:#fff;stroke:#2e353a;stroke-miterlimit:10"></circle><path d="M426.71,117.38a10.22,10.22,0,0,1,.21,2.09c0,.09,0,.17,0,.26" style="fill:none;stroke:#2e353a;stroke-linecap:round;stroke-linejoin:round;stroke-width:0.5px"></path><path d="M410.83,110.78a10.38,10.38,0,0,1,15.37,4.88" style="fill:none;stroke:#2e353a;stroke-linecap:round;stroke-linejoin:round;stroke-width:0.5px"></path><path d="M413.73,112.29a7.71,7.71,0,0,0-1.58.84" style="fill:none;stroke:#2e353a;stroke-linecap:round;stroke-linejoin:round;stroke-width:0.5px"></path><path d="M424.22,119.66a1.15,1.15,0,0,0,0-.19,7.71,7.71,0,0,0-7.71-7.71,6.78,6.78,0,0,0-1.2.1" style="fill:none;stroke:#2e353a;stroke-linecap:round;stroke-linejoin:round;stroke-width:0.5px"></path><path d="M421.72,119.6v-.13a5.2,5.2,0,0,0-5.2-5.2,5.13,5.13,0,0,0-3.14,1.07" style="fill:none;stroke:#2e353a;stroke-linecap:round;stroke-linejoin:round;stroke-width:0.5px"></path><path d="M415.43,116.82a2.82,2.82,0,0,0-.89.59" style="fill:none;stroke:#2e353a;stroke-linecap:round;stroke-linejoin:round;stroke-width:0.5px"></path><path d="M419.39,119.54v-.07a2.87,2.87,0,0,0-2.87-2.87" style="fill:none;stroke:#2e353a;stroke-linecap:round;stroke-linejoin:round;stroke-width:0.5px"></path><path d="M351.92,118a10.56,10.56,0,0,0-.11,1.49c0,.09,0,.17,0,.26" style="fill:none;stroke:#2e353a;stroke-linecap:round;stroke-linejoin:round;stroke-width:0.5px"></path><path d="M364.28,109.28a10.09,10.09,0,0,0-2.07-.21,10.4,10.4,0,0,0-9.86,7.08" style="fill:none;stroke:#2e353a;stroke-linecap:round;stroke-linejoin:round;stroke-width:0.5px"></path><path d="M367.9,110.78a10.46,10.46,0,0,0-2.11-1.07" style="fill:none;stroke:#2e353a;stroke-linecap:round;stroke-linejoin:round;stroke-width:0.5px"></path><path d="M361.59,111.79c.2,0,.41,0,.62,0a7.71,7.71,0,0,1,4.38,1.37" style="fill:none;stroke:#2e353a;stroke-linecap:round;stroke-linejoin:round;stroke-width:0.5px"></path><path d="M354.51,119.66c0-.06,0-.12,0-.19a7.71,7.71,0,0,1,4.71-7.1" style="fill:none;stroke:#2e353a;stroke-linecap:round;stroke-linejoin:round;stroke-width:0.5px"></path><path d="M357,119.6v-.13a5.2,5.2,0,0,1,5.2-5.2,5.13,5.13,0,0,1,3.14,1.07" style="fill:none;stroke:#2e353a;stroke-linecap:round;stroke-linejoin:round;stroke-width:0.5px"></path><path d="M359.35,119.54a.15.15,0,0,1,0-.07,2.86,2.86,0,0,1,4.86-2.06" style="fill:none;stroke:#2e353a;stroke-linecap:round;stroke-linejoin:round;stroke-width:0.5px"></path><path d="M231.63,302.42l-7-13.85a.75.75,0,0,0-1-.35.77.77,0,0,0-.35,1l6.7,14a1,1,0,0,0-.22,1.08l7.08,13.28c.19.37.8.45,1.36.18s.87-.81.69-1.19l-6.21-13.71A1.06,1.06,0,0,0,231.63,302.42Z" style="fill:#2e353a"></path><path d="M270.4,302.42l7-13.85a.76.76,0,1,1,1.36.67l-6.69,14a1,1,0,0,1,.21,1.08l-7.08,13.28c-.19.37-.79.45-1.36.18s-.87-.81-.69-1.19l6.21-13.71A1.06,1.06,0,0,1,270.4,302.42Z" style="fill:#2e353a"></path><polygon points="273.07 318.2 229.11 318.2 232.4 312.61 269.77 312.61 273.07 318.2" style="fill:#fff;stroke:#2e353a;stroke-linecap:round;stroke-linejoin:round"></polygon><rect x="229.11" y="318.2" width="43.96" height="5.6" style="fill:#fff;stroke:#2e353a;stroke-linecap:round;stroke-linejoin:round"></rect><rect x="232.19" y="319.77" width="19.37" height="2.47" rx="1.23" style="fill:#fff;stroke:#2e353a;stroke-miterlimit:10"></rect><circle cx="260.55" cy="320.86" r="1.08" style="fill:#fff;stroke:#2e353a;stroke-miterlimit:10"></circle><path d="M266.11,320.86a1.09,1.09,0,1,0-1.08,1.08A1.08,1.08,0,0,0,266.11,320.86Z" style="fill:#fff;stroke:#2e353a;stroke-miterlimit:10"></path><circle cx="269.5" cy="320.86" r="1.08" style="fill:#fff;stroke:#2e353a;stroke-miterlimit:10"></circle><path d="M283.44,279.79a10.41,10.41,0,0,1,5.21,9c0,.09,0,.17,0,.26" style="fill:none;stroke:#2e353a;stroke-linecap:round;stroke-linejoin:round;stroke-width:0.5px"></path><path d="M272.55,280.11a10.38,10.38,0,0,1,5.7-1.7,10.18,10.18,0,0,1,3.37.56" style="fill:none;stroke:#2e353a;stroke-linecap:round;stroke-linejoin:round;stroke-width:0.5px"></path><path d="M276.9,281.21a7.82,7.82,0,0,0-3,1.25" style="fill:none;stroke:#2e353a;stroke-linecap:round;stroke-linejoin:round;stroke-width:0.5px"></path><path d="M286,289c0-.06,0-.12,0-.19a7.72,7.72,0,0,0-6.95-7.67" style="fill:none;stroke:#2e353a;stroke-linecap:round;stroke-linejoin:round;stroke-width:0.5px"></path><path d="M282,285.19a5.15,5.15,0,0,0-3.73-1.58,5.22,5.22,0,0,0-3.15,1.06" style="fill:none;stroke:#2e353a;stroke-linecap:round;stroke-linejoin:round;stroke-width:0.5px"></path><path d="M283.44,288.93s0-.08,0-.13a5.24,5.24,0,0,0-.41-2" style="fill:none;stroke:#2e353a;stroke-linecap:round;stroke-linejoin:round;stroke-width:0.5px"></path><path d="M277.55,286a2.88,2.88,0,0,0-1.29.72" style="fill:none;stroke:#2e353a;stroke-linecap:round;stroke-linejoin:round;stroke-width:0.5px"></path><path d="M281.11,288.87s0,0,0-.07A2.86,2.86,0,0,0,279,286" style="fill:none;stroke:#2e353a;stroke-linecap:round;stroke-linejoin:round;stroke-width:0.5px"></path><path d="M213.68,287.06a10,10,0,0,0-.15,1.74c0,.09,0,.17,0,.26" style="fill:none;stroke:#2e353a;stroke-linecap:round;stroke-linejoin:round;stroke-width:0.5px"></path><path d="M219.83,279.24a10.5,10.5,0,0,0-5.62,5.86" style="fill:none;stroke:#2e353a;stroke-linecap:round;stroke-linejoin:round;stroke-width:0.5px"></path><path d="M229.62,280.11a10.35,10.35,0,0,0-5.69-1.7,10.22,10.22,0,0,0-2.09.21" style="fill:none;stroke:#2e353a;stroke-linecap:round;stroke-linejoin:round;stroke-width:0.5px"></path><path d="M218.11,283.75a7.72,7.72,0,0,1,10.2-1.29" style="fill:none;stroke:#2e353a;stroke-linecap:round;stroke-linejoin:round;stroke-width:0.5px"></path><path d="M216.23,289c0-.06,0-.12,0-.19a7.75,7.75,0,0,1,.74-3.3" style="fill:none;stroke:#2e353a;stroke-linecap:round;stroke-linejoin:round;stroke-width:0.5px"></path><path d="M220.21,285.17a5.2,5.2,0,0,1,6.86-.5" style="fill:none;stroke:#2e353a;stroke-linecap:round;stroke-linejoin:round;stroke-width:0.5px"></path><path d="M218.74,288.93s0-.08,0-.13a5.11,5.11,0,0,1,.51-2.24" style="fill:none;stroke:#2e353a;stroke-linecap:round;stroke-linejoin:round;stroke-width:0.5px"></path><path d="M222.05,286.63a2.89,2.89,0,0,1,3.87.11" style="fill:none;stroke:#2e353a;stroke-linecap:round;stroke-linejoin:round;stroke-width:0.5px"></path><path d="M221.07,288.87s0,0,0-.07a2.85,2.85,0,0,1,.34-1.35" style="fill:none;stroke:#2e353a;stroke-linecap:round;stroke-linejoin:round;stroke-width:0.5px"></path><path d="M69.32,218.09l-7-13.85a.76.76,0,1,0-1.36.67l6.69,14A1.06,1.06,0,0,0,67.4,220l7.08,13.28c.19.37.79.45,1.36.17s.87-.8.68-1.18l-6.2-13.71A1.06,1.06,0,0,0,69.32,218.09Z" style="fill:#2e353a"></path><path d="M108.08,218.09l7-13.85a.75.75,0,0,1,1-.35.77.77,0,0,1,.35,1l-6.7,14A1,1,0,0,1,110,220l-7.08,13.28c-.19.37-.8.45-1.36.17s-.87-.8-.69-1.18l6.21-13.71A1.05,1.05,0,0,1,108.08,218.09Z" style="fill:#2e353a"></path><polygon points="110.76 233.87 66.8 233.87 70.09 228.27 107.46 228.27 110.76 233.87" style="fill:#fff;stroke:#2e353a;stroke-linecap:round;stroke-linejoin:round"></polygon><rect x="66.79" y="233.87" width="43.96" height="5.6" style="fill:#fff;stroke:#2e353a;stroke-linecap:round;stroke-linejoin:round"></rect><path d="M88,237.91H71.11a1.24,1.24,0,0,1-1.23-1.24h0a1.23,1.23,0,0,1,1.23-1.23H88a1.23,1.23,0,0,1,1.23,1.23h0A1.24,1.24,0,0,1,88,237.91Z" style="fill:#fff;stroke:#2e353a;stroke-miterlimit:10"></path><circle cx="98.24" cy="236.52" r="1.08" style="fill:#fff;stroke:#2e353a;stroke-miterlimit:10"></circle><circle cx="102.71" cy="236.52" r="1.08" style="fill:#fff;stroke:#2e353a;stroke-miterlimit:10"></circle><path d="M108.27,236.52a1.09,1.09,0,1,0-1.08,1.09A1.08,1.08,0,0,0,108.27,236.52Z" style="fill:#fff;stroke:#2e353a;stroke-miterlimit:10"></path><path d="M125.76,201.06a10.43,10.43,0,0,1,.57,3.41c0,.09,0,.17,0,.26" style="fill:none;stroke:#2e353a;stroke-linecap:round;stroke-linejoin:round;stroke-width:0.5px"></path><path d="M118,194.27a10.45,10.45,0,0,1,7.37,5.76" style="fill:none;stroke:#2e353a;stroke-linecap:round;stroke-linejoin:round;stroke-width:0.5px"></path><path d="M110.24,195.78a10.31,10.31,0,0,1,4.63-1.65" style="fill:none;stroke:#2e353a;stroke-linecap:round;stroke-linejoin:round;stroke-width:0.5px"></path><path d="M121.73,199.39a7.69,7.69,0,0,0-10.17-1.26" style="fill:none;stroke:#2e353a;stroke-linecap:round;stroke-linejoin:round;stroke-width:0.5px"></path><path d="M123.63,204.66a1.15,1.15,0,0,0,0-.19,7.72,7.72,0,0,0-.86-3.55" style="fill:none;stroke:#2e353a;stroke-linecap:round;stroke-linejoin:round;stroke-width:0.5px"></path><path d="M114.86,199.39a5.16,5.16,0,0,0-2.07,1" style="fill:none;stroke:#2e353a;stroke-linecap:round;stroke-linejoin:round;stroke-width:0.5px"></path><path d="M121.13,204.6v-.13a5.19,5.19,0,0,0-4.07-5.07" style="fill:none;stroke:#2e353a;stroke-linecap:round;stroke-linejoin:round;stroke-width:0.5px"></path><path d="M118.19,202.7a2.85,2.85,0,0,0-4.24-.29" style="fill:none;stroke:#2e353a;stroke-linecap:round;stroke-linejoin:round;stroke-width:0.5px"></path><path d="M118.8,204.54v-.07a2.82,2.82,0,0,0-.12-.83" style="fill:none;stroke:#2e353a;stroke-linecap:round;stroke-linejoin:round;stroke-width:0.5px"></path><path d="M59.8,194.23a10.4,10.4,0,0,0-8.58,10.24c0,.09,0,.17,0,.26" style="fill:none;stroke:#2e353a;stroke-linecap:round;stroke-linejoin:round;stroke-width:0.5px"></path><path d="M67.31,195.78a10.41,10.41,0,0,0-5-1.68" style="fill:none;stroke:#2e353a;stroke-linecap:round;stroke-linejoin:round;stroke-width:0.5px"></path><path d="M63.32,197A7.89,7.89,0,0,1,66,198.13" style="fill:none;stroke:#2e353a;stroke-linecap:round;stroke-linejoin:round;stroke-width:0.5px"></path><path d="M53.92,204.66c0-.06,0-.12,0-.19a7.71,7.71,0,0,1,7.71-7.71" style="fill:none;stroke:#2e353a;stroke-linecap:round;stroke-linejoin:round;stroke-width:0.5px"></path><path d="M57.61,201.17a5.17,5.17,0,0,1,7.15-.83" style="fill:none;stroke:#2e353a;stroke-linecap:round;stroke-linejoin:round;stroke-width:0.5px"></path><path d="M56.42,204.6v-.13a5.07,5.07,0,0,1,.41-2" style="fill:none;stroke:#2e353a;stroke-linecap:round;stroke-linejoin:round;stroke-width:0.5px"></path><path d="M62.13,201.65a2.88,2.88,0,0,1,1.48.76" style="fill:none;stroke:#2e353a;stroke-linecap:round;stroke-linejoin:round;stroke-width:0.5px"></path><path d="M58.76,204.54s0,0,0-.07a2.88,2.88,0,0,1,2.4-2.83" style="fill:none;stroke:#2e353a;stroke-linecap:round;stroke-linejoin:round;stroke-width:0.5px"></path></g><g id="freepik--device-3--inject-188"><rect x="208.95" y="329.64" width="89.11" height="61.05" style="fill:#2e353a;stroke:#2e353a;stroke-miterlimit:10"></rect><polygon points="311.43 417.68 195.59 417.68 208.95 390.69 298.06 390.69 311.43 417.68" style="fill:#fff;stroke:#2e353a;stroke-linecap:round;stroke-linejoin:round"></polygon><rect x="214.35" y="334.47" width="78.31" height="51.39" style="fill:#fff;stroke:#2e353a;stroke-miterlimit:10"></rect><polygon points="265.24 355.23 253.53 341.38 241.82 355.23 246.72 355.23 246.72 376.92 260.34 376.92 260.34 355.23 265.24 355.23" style="fill:#90CAF9"></polygon><polygon points="249.79 399.24 249.94 395.95 245.24 395.95 244.92 399.24 249.79 399.24" style="fill:#fff;stroke:#2e353a;stroke-miterlimit:10"></polygon><polygon points="259.52 399.24 259.36 395.95 254.65 395.95 254.66 399.24 259.52 399.24" style="fill:#fff;stroke:#2e353a;stroke-miterlimit:10"></polygon><polygon points="284.86 402.75 289.9 402.75 288.71 399.24 283.85 399.24 284.86 402.75" style="fill:#fff;stroke:#2e353a;stroke-miterlimit:10"></polygon><polygon points="244.92 399.24 245.24 395.95 240.53 395.95 240.06 399.24 244.92 399.24" style="fill:#fff;stroke:#2e353a;stroke-miterlimit:10"></polygon><polygon points="235.19 399.24 235.82 395.95 231.11 395.95 230.33 399.24 235.19 399.24" style="fill:#fff;stroke:#2e353a;stroke-miterlimit:10"></polygon><polygon points="278.98 399.24 278.19 395.95 273.48 395.95 274.12 399.24 278.98 399.24" style="fill:#fff;stroke:#2e353a;stroke-miterlimit:10"></polygon><polygon points="283.85 399.24 282.9 395.95 278.19 395.95 278.98 399.24 283.85 399.24" style="fill:#fff;stroke:#2e353a;stroke-miterlimit:10"></polygon><polygon points="230.33 399.24 231.11 395.95 226.4 395.95 225.46 399.24 230.33 399.24" style="fill:#fff;stroke:#2e353a;stroke-miterlimit:10"></polygon><polygon points="264.39 399.24 264.07 395.95 259.36 395.95 259.52 399.24 264.39 399.24" style="fill:#fff;stroke:#2e353a;stroke-miterlimit:10"></polygon><polygon points="288.71 399.24 287.61 395.95 282.9 395.95 283.85 399.24 288.71 399.24" style="fill:#fff;stroke:#2e353a;stroke-miterlimit:10"></polygon><polygon points="274.12 399.24 273.48 395.95 268.78 395.95 269.25 399.24 274.12 399.24" style="fill:#fff;stroke:#2e353a;stroke-miterlimit:10"></polygon><polygon points="269.25 399.24 268.78 395.95 264.07 395.95 264.39 399.24 269.25 399.24" style="fill:#fff;stroke:#2e353a;stroke-miterlimit:10"></polygon><polygon points="254.66 399.24 254.65 395.95 249.94 395.95 249.79 399.24 254.66 399.24" style="fill:#fff;stroke:#2e353a;stroke-miterlimit:10"></polygon><polygon points="220.6 399.24 215.73 399.24 214.39 402.75 219.42 402.75 220.6 399.24" style="fill:#fff;stroke:#2e353a;stroke-miterlimit:10"></polygon><polygon points="221.69 395.95 216.99 395.95 215.73 399.24 220.6 399.24 221.69 395.95" style="fill:#fff;stroke:#2e353a;stroke-miterlimit:10"></polygon><polygon points="225.46 399.24 226.4 395.95 221.69 395.95 220.6 399.24 225.46 399.24" style="fill:#fff;stroke:#2e353a;stroke-miterlimit:10"></polygon><polygon points="212.95 406.52 211.4 410.57 216.81 410.57 218.16 406.52 212.95 406.52" style="fill:#fff;stroke:#2e353a;stroke-miterlimit:10"></polygon><polygon points="219.42 402.75 214.39 402.75 212.95 406.52 218.16 406.52 219.42 402.75" style="fill:#fff;stroke:#2e353a;stroke-miterlimit:10"></polygon><polygon points="218.16 406.52 216.81 410.57 222.22 410.57 223.38 406.52 218.16 406.52" style="fill:#fff;stroke:#2e353a;stroke-miterlimit:10"></polygon><polygon points="240.06 399.24 240.53 395.95 235.82 395.95 235.19 399.24 240.06 399.24" style="fill:#fff;stroke:#2e353a;stroke-miterlimit:10"></polygon><polygon points="239.56 402.75 240.06 399.24 235.19 399.24 234.52 402.75 239.56 402.75" style="fill:#fff;stroke:#2e353a;stroke-miterlimit:10"></polygon><polygon points="234.52 402.75 235.19 399.24 230.33 399.24 229.49 402.75 234.52 402.75" style="fill:#fff;stroke:#2e353a;stroke-miterlimit:10"></polygon><polygon points="244.59 402.75 244.92 399.24 240.06 399.24 239.56 402.75 244.59 402.75" style="fill:#fff;stroke:#2e353a;stroke-miterlimit:10"></polygon><polygon points="225.46 399.24 220.6 399.24 219.42 402.75 224.46 402.75 225.46 399.24" style="fill:#fff;stroke:#2e353a;stroke-miterlimit:10"></polygon><polygon points="285.95 406.52 291.16 406.52 289.9 402.75 284.86 402.75 285.95 406.52" style="fill:#fff;stroke:#2e353a;stroke-miterlimit:10"></polygon><polygon points="229.49 402.75 230.33 399.24 225.46 399.24 224.46 402.75 229.49 402.75" style="fill:#fff;stroke:#2e353a;stroke-miterlimit:10"></polygon><polygon points="219.42 402.75 218.16 406.52 223.38 406.52 224.46 402.75 219.42 402.75" style="fill:#fff;stroke:#2e353a;stroke-miterlimit:10"></polygon><polygon points="274.79 402.75 274.12 399.24 269.25 399.24 269.76 402.75 274.79 402.75" style="fill:#fff;stroke:#2e353a;stroke-miterlimit:10"></polygon><polygon points="269.76 402.75 269.25 399.24 264.39 399.24 264.73 402.75 269.76 402.75" style="fill:#fff;stroke:#2e353a;stroke-miterlimit:10"></polygon><polygon points="284.86 402.75 283.85 399.24 278.98 399.24 279.83 402.75 284.86 402.75" style="fill:#fff;stroke:#2e353a;stroke-miterlimit:10"></polygon><polygon points="254.66 402.75 254.66 399.24 249.79 399.24 249.62 402.75 254.66 402.75" style="fill:#fff;stroke:#2e353a;stroke-miterlimit:10"></polygon><polygon points="264.73 402.75 264.39 399.24 259.52 399.24 259.69 402.75 264.73 402.75" style="fill:#fff;stroke:#2e353a;stroke-miterlimit:10"></polygon><polygon points="259.69 402.75 259.52 399.24 254.66 399.24 254.66 402.75 259.69 402.75" style="fill:#fff;stroke:#2e353a;stroke-miterlimit:10"></polygon><polygon points="249.62 402.75 249.79 399.24 244.92 399.24 244.59 402.75 249.62 402.75" style="fill:#fff;stroke:#2e353a;stroke-miterlimit:10"></polygon><polygon points="264.73 402.75 265.09 406.52 270.31 406.52 269.76 402.75 264.73 402.75" style="fill:#fff;stroke:#2e353a;stroke-miterlimit:10"></polygon><polygon points="269.76 402.75 270.31 406.52 275.52 406.52 274.79 402.75 269.76 402.75" style="fill:#fff;stroke:#2e353a;stroke-miterlimit:10"></polygon><polygon points="224.46 402.75 223.38 406.52 228.59 406.52 229.49 402.75 224.46 402.75" style="fill:#fff;stroke:#2e353a;stroke-miterlimit:10"></polygon><polygon points="274.79 402.75 275.52 406.52 280.73 406.52 279.83 402.75 274.79 402.75" style="fill:#fff;stroke:#2e353a;stroke-miterlimit:10"></polygon><polygon points="254.66 402.75 254.66 406.52 259.88 406.52 259.69 402.75 254.66 402.75" style="fill:#fff;stroke:#2e353a;stroke-miterlimit:10"></polygon><polygon points="279.83 402.75 280.73 406.52 285.95 406.52 284.86 402.75 279.83 402.75" style="fill:#fff;stroke:#2e353a;stroke-miterlimit:10"></polygon><polygon points="259.69 402.75 259.88 406.52 265.09 406.52 264.73 402.75 259.69 402.75" style="fill:#fff;stroke:#2e353a;stroke-miterlimit:10"></polygon><polygon points="234.52 402.75 233.8 406.52 239.02 406.52 239.56 402.75 234.52 402.75" style="fill:#fff;stroke:#2e353a;stroke-miterlimit:10"></polygon><polygon points="229.49 402.75 228.59 406.52 233.8 406.52 234.52 402.75 229.49 402.75" style="fill:#fff;stroke:#2e353a;stroke-miterlimit:10"></polygon><polygon points="249.62 402.75 249.45 406.52 254.66 406.52 254.66 402.75 249.62 402.75" style="fill:#fff;stroke:#2e353a;stroke-miterlimit:10"></polygon><polygon points="244.59 402.75 244.23 406.52 249.45 406.52 249.62 402.75 244.59 402.75" style="fill:#fff;stroke:#2e353a;stroke-miterlimit:10"></polygon><polygon points="239.56 402.75 239.02 406.52 244.23 406.52 244.59 402.75 239.56 402.75" style="fill:#fff;stroke:#2e353a;stroke-miterlimit:10"></polygon><polygon points="279.83 402.75 278.98 399.24 274.12 399.24 274.79 402.75 279.83 402.75" style="fill:#fff;stroke:#2e353a;stroke-miterlimit:10"></polygon><polygon points="221.69 395.95 222.82 392.58 218.27 392.58 216.99 395.95 221.69 395.95" style="fill:#fff;stroke:#2e353a;stroke-miterlimit:10"></polygon><polygon points="216.99 395.95 212.64 395.95 211.24 399.24 215.73 399.24 216.99 395.95" style="fill:#fff;stroke:#2e353a;stroke-miterlimit:10"></polygon><polygon points="218.27 392.58 214.08 392.58 212.64 395.95 216.99 395.95 218.27 392.58" style="fill:#fff;stroke:#2e353a;stroke-miterlimit:10"></polygon><polygon points="215.73 399.24 211.24 399.24 209.74 402.75 214.39 402.75 215.73 399.24" style="fill:#fff;stroke:#2e353a;stroke-miterlimit:10"></polygon><polygon points="214.39 402.75 209.74 402.75 208.13 406.52 212.95 406.52 214.39 402.75" style="fill:#fff;stroke:#2e353a;stroke-miterlimit:10"></polygon><polygon points="212.95 406.52 208.13 406.52 206.41 410.57 211.4 410.57 212.95 406.52" style="fill:#fff;stroke:#2e353a;stroke-miterlimit:10"></polygon><polygon points="293.58 399.24 294.93 402.75 299.38 402.75 297.88 399.24 293.58 399.24" style="fill:#fff;stroke:#2e353a;stroke-miterlimit:10"></polygon><polygon points="296.38 406.52 300.99 406.52 299.38 402.75 294.93 402.75 296.38 406.52" style="fill:#fff;stroke:#2e353a;stroke-miterlimit:10"></polygon><polygon points="297.93 410.57 302.71 410.57 300.99 406.52 296.38 406.52 297.93 410.57" style="fill:#fff;stroke:#2e353a;stroke-miterlimit:10"></polygon><polygon points="259.36 395.95 259.2 392.58 254.65 392.58 254.65 395.95 259.36 395.95" style="fill:#fff;stroke:#2e353a;stroke-miterlimit:10"></polygon><polygon points="293.58 399.24 297.88 399.24 296.48 395.95 292.32 395.95 293.58 399.24" style="fill:#fff;stroke:#2e353a;stroke-miterlimit:10"></polygon><polygon points="291.16 406.52 296.38 406.52 294.93 402.75 289.9 402.75 291.16 406.52" style="fill:#fff;stroke:#2e353a;stroke-miterlimit:10"></polygon><polygon points="226.4 395.95 227.37 392.58 222.82 392.58 221.69 395.95 226.4 395.95" style="fill:#fff;stroke:#2e353a;stroke-miterlimit:10"></polygon><polygon points="287.61 395.95 288.71 399.24 293.58 399.24 292.32 395.95 287.61 395.95" style="fill:#fff;stroke:#2e353a;stroke-miterlimit:10"></polygon><polygon points="296.48 395.95 295.05 392.58 291.02 392.58 292.32 395.95 296.48 395.95" style="fill:#fff;stroke:#2e353a;stroke-miterlimit:10"></polygon><polygon points="292.32 395.95 291.02 392.58 286.48 392.58 287.61 395.95 292.32 395.95" style="fill:#fff;stroke:#2e353a;stroke-miterlimit:10"></polygon><polygon points="275.52 406.52 276.3 410.57 281.71 410.57 280.73 406.52 275.52 406.52" style="fill:#fff;stroke:#2e353a;stroke-miterlimit:10"></polygon><polygon points="292.52 410.57 297.93 410.57 296.38 406.52 291.16 406.52 292.52 410.57" style="fill:#fff;stroke:#2e353a;stroke-miterlimit:10"></polygon><polygon points="287.61 395.95 286.48 392.58 281.93 392.58 282.9 395.95 287.61 395.95" style="fill:#fff;stroke:#2e353a;stroke-miterlimit:10"></polygon><polygon points="285.95 406.52 287.11 410.57 292.52 410.57 291.16 406.52 285.95 406.52" style="fill:#fff;stroke:#2e353a;stroke-miterlimit:10"></polygon><polygon points="280.73 406.52 281.71 410.57 287.11 410.57 285.95 406.52 280.73 406.52" style="fill:#fff;stroke:#2e353a;stroke-miterlimit:10"></polygon><polygon points="289.9 402.75 294.93 402.75 293.58 399.24 288.71 399.24 289.9 402.75" style="fill:#fff;stroke:#2e353a;stroke-miterlimit:10"></polygon><polygon points="245.24 395.95 245.56 392.58 241.01 392.58 240.53 395.95 245.24 395.95" style="fill:#fff;stroke:#2e353a;stroke-miterlimit:10"></polygon><polygon points="282.9 395.95 281.93 392.58 277.38 392.58 278.19 395.95 282.9 395.95" style="fill:#fff;stroke:#2e353a;stroke-miterlimit:10"></polygon><polygon points="240.53 395.95 241.01 392.58 236.46 392.58 235.82 395.95 240.53 395.95" style="fill:#fff;stroke:#2e353a;stroke-miterlimit:10"></polygon><polygon points="254.65 395.95 254.65 392.58 250.1 392.58 249.94 395.95 254.65 395.95" style="fill:#fff;stroke:#2e353a;stroke-miterlimit:10"></polygon><polygon points="235.82 395.95 236.46 392.58 231.91 392.58 231.11 395.95 235.82 395.95" style="fill:#fff;stroke:#2e353a;stroke-miterlimit:10"></polygon><polygon points="231.11 395.95 231.91 392.58 227.37 392.58 226.4 395.95 231.11 395.95" style="fill:#fff;stroke:#2e353a;stroke-miterlimit:10"></polygon><polygon points="249.94 395.95 250.1 392.58 245.56 392.58 245.24 395.95 249.94 395.95" style="fill:#fff;stroke:#2e353a;stroke-miterlimit:10"></polygon><polygon points="278.19 395.95 277.38 392.58 272.84 392.58 273.48 395.95 278.19 395.95" style="fill:#fff;stroke:#2e353a;stroke-miterlimit:10"></polygon><polygon points="273.48 395.95 272.84 392.58 268.29 392.58 268.78 395.95 273.48 395.95" style="fill:#fff;stroke:#2e353a;stroke-miterlimit:10"></polygon><polygon points="264.07 395.95 263.74 392.58 259.2 392.58 259.36 395.95 264.07 395.95" style="fill:#fff;stroke:#2e353a;stroke-miterlimit:10"></polygon><polygon points="275.52 406.52 270.31 406.52 265.09 406.52 259.88 406.52 254.66 406.52 249.45 406.52 244.23 406.52 239.02 406.52 233.8 406.52 228.59 406.52 223.38 406.52 222.22 410.57 227.63 410.57 233.03 410.57 238.44 410.57 243.85 410.57 249.26 410.57 254.66 410.57 260.07 410.57 265.48 410.57 270.89 410.57 276.3 410.57 275.52 406.52" style="fill:#fff;stroke:#2e353a;stroke-miterlimit:10"></polygon><polygon points="268.78 395.95 268.29 392.58 263.74 392.58 264.07 395.95 268.78 395.95" style="fill:#fff;stroke:#2e353a;stroke-miterlimit:10"></polygon><rect x="195.59" y="417.68" width="115.89" height="1.64" style="fill:#2e353a;stroke:#2e353a;stroke-miterlimit:10"></rect><path d="M330.85,329.64h68a0,0,0,0,1,0,0v61.05a0,0,0,0,1,0,0h-68a1.62,1.62,0,0,1-1.62-1.62v-57.8A1.62,1.62,0,0,1,330.85,329.64Z" style="fill:#fff;stroke:#2e353a;stroke-linecap:round;stroke-linejoin:round"></path><rect x="331.06" y="329.64" width="70.13" height="61.05" style="fill:#2e353a;stroke:#2e353a;stroke-miterlimit:10"></rect><rect x="336.46" y="334.47" width="60.9" height="51.39" style="fill:#fff;stroke:#2e353a;stroke-linecap:round;stroke-linejoin:round"></rect><polygon points="357.26 355.23 366.34 341.38 375.42 355.23 371.62 355.23 371.62 376.92 361.06 376.92 361.06 355.23 357.26 355.23" style="fill:#90CAF9"></polygon><polygon points="331.06 390.69 384.22 406.06 455.89 406.06 401.19 390.69 331.06 390.69" style="fill:#fff;stroke:#2e353a;stroke-linecap:round;stroke-linejoin:round"></polygon><polygon points="387.83 396.77 381.18 394.88 378.27 394.85 384.9 396.75 387.83 396.77" style="fill:#fff;stroke:#2e353a;stroke-miterlimit:10;stroke-width:0.25px"></polygon><polygon points="393.62 396.82 386.95 394.94 384.08 394.91 390.73 396.8 393.62 396.82" style="fill:#fff;stroke:#2e353a;stroke-miterlimit:10;stroke-width:0.25px"></polygon><polygon points="414.64 398.81 417.42 398.83 410.51 396.94 407.74 396.92 414.64 398.81" style="fill:#fff;stroke:#2e353a;stroke-miterlimit:10;stroke-width:0.25px"></polygon><polygon points="384.9 396.75 378.27 394.85 375.34 394.82 381.95 396.73 384.9 396.75" style="fill:#fff;stroke:#2e353a;stroke-miterlimit:10;stroke-width:0.25px"></polygon><polygon points="378.99 396.71 372.38 394.8 369.41 394.77 376 396.69 378.99 396.71" style="fill:#fff;stroke:#2e353a;stroke-miterlimit:10;stroke-width:0.25px"></polygon><polygon points="404.96 396.9 398.24 395.04 395.45 395.02 402.15 396.88 404.96 396.9" style="fill:#fff;stroke:#2e353a;stroke-miterlimit:10;stroke-width:0.25px"></polygon><polygon points="407.74 396.92 401.01 395.07 398.24 395.04 404.96 396.9 407.74 396.92" style="fill:#fff;stroke:#2e353a;stroke-miterlimit:10;stroke-width:0.25px"></polygon><polygon points="376 396.69 369.41 394.77 366.41 394.74 372.98 396.67 376 396.69" style="fill:#fff;stroke:#2e353a;stroke-miterlimit:10;stroke-width:0.25px"></polygon><polygon points="396.48 396.84 389.8 394.96 386.95 394.94 393.62 396.82 396.48 396.84" style="fill:#fff;stroke:#2e353a;stroke-miterlimit:10;stroke-width:0.25px"></polygon><polygon points="410.51 396.94 403.77 395.1 401.01 395.07 407.74 396.92 410.51 396.94" style="fill:#fff;stroke:#2e353a;stroke-miterlimit:10;stroke-width:0.25px"></polygon><polygon points="402.15 396.88 395.45 395.02 392.63 394.99 399.33 396.86 402.15 396.88" style="fill:#fff;stroke:#2e353a;stroke-miterlimit:10;stroke-width:0.25px"></polygon><polygon points="399.33 396.86 392.63 394.99 389.8 394.96 396.48 396.84 399.33 396.86" style="fill:#fff;stroke:#2e353a;stroke-miterlimit:10;stroke-width:0.25px"></polygon><polygon points="390.73 396.8 384.08 394.91 381.18 394.88 387.83 396.77 390.73 396.8" style="fill:#fff;stroke:#2e353a;stroke-miterlimit:10;stroke-width:0.25px"></polygon><polygon points="369.95 396.64 366.89 396.62 373.61 398.61 376.68 398.63 369.95 396.64" style="fill:#fff;stroke:#2e353a;stroke-miterlimit:10;stroke-width:0.25px"></polygon><polygon points="363.39 394.71 360.35 394.68 366.89 396.62 369.95 396.64 363.39 394.71" style="fill:#fff;stroke:#2e353a;stroke-miterlimit:10;stroke-width:0.25px"></polygon><polygon points="372.98 396.67 366.41 394.74 363.39 394.71 369.95 396.64 372.98 396.67" style="fill:#fff;stroke:#2e353a;stroke-miterlimit:10;stroke-width:0.25px"></polygon><polygon points="380.5 400.65 387.59 402.75 390.69 402.75 383.59 400.66 380.5 400.65" style="fill:#fff;stroke:#2e353a;stroke-miterlimit:10;stroke-width:0.25px"></polygon><polygon points="376.68 398.63 373.61 398.61 380.5 400.65 383.59 400.66 376.68 398.63" style="fill:#fff;stroke:#2e353a;stroke-miterlimit:10;stroke-width:0.25px"></polygon><polygon points="383.59 400.66 390.69 402.75 393.77 402.75 386.65 400.67 383.59 400.66" style="fill:#fff;stroke:#2e353a;stroke-miterlimit:10;stroke-width:0.25px"></polygon><polygon points="381.95 396.73 375.34 394.82 372.38 394.8 378.99 396.71 381.95 396.73" style="fill:#fff;stroke:#2e353a;stroke-miterlimit:10;stroke-width:0.25px"></polygon><polygon points="388.74 398.69 381.95 396.73 378.99 396.71 385.76 398.67 388.74 398.69" style="fill:#fff;stroke:#2e353a;stroke-miterlimit:10;stroke-width:0.25px"></polygon><polygon points="385.76 398.67 378.99 396.71 376 396.69 382.76 398.66 385.76 398.67" style="fill:#fff;stroke:#2e353a;stroke-miterlimit:10;stroke-width:0.25px"></polygon><polygon points="391.7 398.7 384.9 396.75 381.95 396.73 388.74 398.69 391.7 398.7" style="fill:#fff;stroke:#2e353a;stroke-miterlimit:10;stroke-width:0.25px"></polygon><polygon points="372.98 396.67 369.95 396.64 376.68 398.63 379.73 398.64 372.98 396.67" style="fill:#fff;stroke:#2e353a;stroke-miterlimit:10;stroke-width:0.25px"></polygon><polygon points="421.72 400.76 424.5 400.77 417.42 398.83 414.64 398.81 421.72 400.76" style="fill:#fff;stroke:#2e353a;stroke-miterlimit:10;stroke-width:0.25px"></polygon><polygon points="382.76 398.66 376 396.69 372.98 396.67 379.73 398.64 382.76 398.66" style="fill:#fff;stroke:#2e353a;stroke-miterlimit:10;stroke-width:0.25px"></polygon><polygon points="376.68 398.63 383.59 400.66 386.65 400.67 379.73 398.64 376.68 398.63" style="fill:#fff;stroke:#2e353a;stroke-miterlimit:10;stroke-width:0.25px"></polygon><polygon points="409.03 398.79 402.15 396.88 399.33 396.86 406.19 398.77 409.03 398.79" style="fill:#fff;stroke:#2e353a;stroke-miterlimit:10;stroke-width:0.25px"></polygon><polygon points="406.19 398.77 399.33 396.86 396.48 396.84 403.34 398.76 406.19 398.77" style="fill:#fff;stroke:#2e353a;stroke-miterlimit:10;stroke-width:0.25px"></polygon><polygon points="414.64 398.81 407.74 396.92 404.96 396.9 411.85 398.8 414.64 398.81" style="fill:#fff;stroke:#2e353a;stroke-miterlimit:10;stroke-width:0.25px"></polygon><polygon points="397.56 398.73 390.73 396.8 387.83 396.77 394.64 398.71 397.56 398.73" style="fill:#fff;stroke:#2e353a;stroke-miterlimit:10;stroke-width:0.25px"></polygon><polygon points="403.34 398.76 396.48 396.84 393.62 396.82 400.46 398.74 403.34 398.76" style="fill:#fff;stroke:#2e353a;stroke-miterlimit:10;stroke-width:0.25px"></polygon><polygon points="400.46 398.74 393.62 396.82 390.73 396.8 397.56 398.73 400.46 398.74" style="fill:#fff;stroke:#2e353a;stroke-miterlimit:10;stroke-width:0.25px"></polygon><polygon points="394.64 398.71 387.83 396.77 384.9 396.75 391.7 398.7 394.64 398.71" style="fill:#fff;stroke:#2e353a;stroke-miterlimit:10;stroke-width:0.25px"></polygon><polygon points="403.34 398.76 410.37 400.73 413.24 400.74 406.19 398.77 403.34 398.76" style="fill:#fff;stroke:#2e353a;stroke-miterlimit:10;stroke-width:0.25px"></polygon><polygon points="406.19 398.77 413.24 400.74 416.08 400.75 409.03 398.79 406.19 398.77" style="fill:#fff;stroke:#2e353a;stroke-miterlimit:10;stroke-width:0.25px"></polygon><polygon points="379.73 398.64 386.65 400.67 389.7 400.68 382.76 398.66 379.73 398.64" style="fill:#fff;stroke:#2e353a;stroke-miterlimit:10;stroke-width:0.25px"></polygon><polygon points="409.03 398.79 416.08 400.75 418.91 400.75 411.85 398.8 409.03 398.79" style="fill:#fff;stroke:#2e353a;stroke-miterlimit:10;stroke-width:0.25px"></polygon><polygon points="397.56 398.73 404.57 400.71 407.48 400.72 400.46 398.74 397.56 398.73" style="fill:#fff;stroke:#2e353a;stroke-miterlimit:10;stroke-width:0.25px"></polygon><polygon points="411.85 398.8 418.91 400.75 421.72 400.76 414.64 398.81 411.85 398.8" style="fill:#fff;stroke:#2e353a;stroke-miterlimit:10;stroke-width:0.25px"></polygon><polygon points="400.46 398.74 407.48 400.72 410.37 400.73 403.34 398.76 400.46 398.74" style="fill:#fff;stroke:#2e353a;stroke-miterlimit:10;stroke-width:0.25px"></polygon><polygon points="385.76 398.67 392.71 400.69 395.71 400.69 388.74 398.69 385.76 398.67" style="fill:#fff;stroke:#2e353a;stroke-miterlimit:10;stroke-width:0.25px"></polygon><polygon points="382.76 398.66 389.7 400.68 392.71 400.69 385.76 398.67 382.76 398.66" style="fill:#fff;stroke:#2e353a;stroke-miterlimit:10;stroke-width:0.25px"></polygon><polygon points="394.64 398.71 401.64 400.71 404.57 400.71 397.56 398.73 394.64 398.71" style="fill:#fff;stroke:#2e353a;stroke-miterlimit:10;stroke-width:0.25px"></polygon><polygon points="391.7 398.7 398.69 400.7 401.64 400.71 394.64 398.71 391.7 398.7" style="fill:#fff;stroke:#2e353a;stroke-miterlimit:10;stroke-width:0.25px"></polygon><polygon points="388.74 398.69 395.71 400.69 398.69 400.7 391.7 398.7 388.74 398.69" style="fill:#fff;stroke:#2e353a;stroke-miterlimit:10;stroke-width:0.25px"></polygon><polygon points="411.85 398.8 404.96 396.9 402.15 396.88 409.03 398.79 411.85 398.8" style="fill:#fff;stroke:#2e353a;stroke-miterlimit:10;stroke-width:0.25px"></polygon><polygon points="363.39 394.71 356.4 392.65 353.38 392.62 360.35 394.68 363.39 394.71" style="fill:#fff;stroke:#2e353a;stroke-miterlimit:10;stroke-width:0.25px"></polygon><polygon points="360.35 394.68 357.52 394.65 364.05 396.6 366.89 396.62 360.35 394.68" style="fill:#fff;stroke:#2e353a;stroke-miterlimit:10;stroke-width:0.25px"></polygon><polygon points="353.38 392.62 350.57 392.58 357.52 394.65 360.35 394.68 353.38 392.62" style="fill:#fff;stroke:#2e353a;stroke-miterlimit:10;stroke-width:0.25px"></polygon><polygon points="366.89 396.62 364.05 396.6 370.75 398.6 373.61 398.61 366.89 396.62" style="fill:#fff;stroke:#2e353a;stroke-miterlimit:10;stroke-width:0.25px"></polygon><polygon points="373.61 398.61 370.75 398.6 377.63 400.65 380.5 400.65 373.61 398.61" style="fill:#fff;stroke:#2e353a;stroke-miterlimit:10;stroke-width:0.25px"></polygon><polygon points="380.5 400.65 377.63 400.65 384.7 402.75 387.59 402.75 380.5 400.65" style="fill:#fff;stroke:#2e353a;stroke-miterlimit:10;stroke-width:0.25px"></polygon><polygon points="413.26 396.96 420.18 398.84 422.6 398.86 415.67 396.98 413.26 396.96" style="fill:#fff;stroke:#2e353a;stroke-miterlimit:10;stroke-width:0.25px"></polygon><polygon points="427.27 400.77 429.7 400.78 422.6 398.86 420.18 398.84 427.27 400.77" style="fill:#fff;stroke:#2e353a;stroke-miterlimit:10;stroke-width:0.25px"></polygon><polygon points="434.55 402.75 436.98 402.75 429.7 400.78 427.27 400.77 434.55 402.75" style="fill:#fff;stroke:#2e353a;stroke-miterlimit:10;stroke-width:0.25px"></polygon><polygon points="386.95 394.94 379.83 392.93 376.97 392.9 384.08 394.91 386.95 394.94" style="fill:#fff;stroke:#2e353a;stroke-miterlimit:10;stroke-width:0.25px"></polygon><polygon points="413.26 396.96 415.67 396.98 408.91 395.15 406.5 395.12 413.26 396.96" style="fill:#fff;stroke:#2e353a;stroke-miterlimit:10;stroke-width:0.25px"></polygon><polygon points="424.5 400.77 427.27 400.77 420.18 398.84 417.42 398.83 424.5 400.77" style="fill:#fff;stroke:#2e353a;stroke-miterlimit:10;stroke-width:0.25px"></polygon><polygon points="366.41 394.74 359.4 392.69 356.4 392.65 363.39 394.71 366.41 394.74" style="fill:#fff;stroke:#2e353a;stroke-miterlimit:10;stroke-width:0.25px"></polygon><polygon points="403.77 395.1 410.51 396.94 413.26 396.96 406.5 395.12 403.77 395.1" style="fill:#fff;stroke:#2e353a;stroke-miterlimit:10;stroke-width:0.25px"></polygon><polygon points="408.91 395.15 401.69 393.19 399.3 393.16 406.5 395.12 408.91 395.15" style="fill:#fff;stroke:#2e353a;stroke-miterlimit:10;stroke-width:0.25px"></polygon><polygon points="406.5 395.12 399.3 393.16 396.57 393.13 403.77 395.1 406.5 395.12" style="fill:#fff;stroke:#2e353a;stroke-miterlimit:10;stroke-width:0.25px"></polygon><polygon points="416.08 400.75 423.32 402.75 426.16 402.75 418.91 400.75 416.08 400.75" style="fill:#fff;stroke:#2e353a;stroke-miterlimit:10;stroke-width:0.25px"></polygon><polygon points="431.77 402.75 434.55 402.75 427.27 400.77 424.5 400.77 431.77 402.75" style="fill:#fff;stroke:#2e353a;stroke-miterlimit:10;stroke-width:0.25px"></polygon><polygon points="403.77 395.1 396.57 393.13 393.83 393.1 401.01 395.07 403.77 395.1" style="fill:#fff;stroke:#2e353a;stroke-miterlimit:10;stroke-width:0.25px"></polygon><polygon points="421.72 400.76 428.97 402.75 431.77 402.75 424.5 400.77 421.72 400.76" style="fill:#fff;stroke:#2e353a;stroke-miterlimit:10;stroke-width:0.25px"></polygon><polygon points="418.91 400.75 426.16 402.75 428.97 402.75 421.72 400.76 418.91 400.75" style="fill:#fff;stroke:#2e353a;stroke-miterlimit:10;stroke-width:0.25px"></polygon><polygon points="417.42 398.83 420.18 398.84 413.26 396.96 410.51 396.94 417.42 398.83" style="fill:#fff;stroke:#2e353a;stroke-miterlimit:10;stroke-width:0.25px"></polygon><polygon points="378.27 394.85 371.2 392.83 368.28 392.79 375.34 394.82 378.27 394.85" style="fill:#fff;stroke:#2e353a;stroke-miterlimit:10;stroke-width:0.25px"></polygon><polygon points="401.01 395.07 393.83 393.1 391.07 393.06 398.24 395.04 401.01 395.07" style="fill:#fff;stroke:#2e353a;stroke-miterlimit:10;stroke-width:0.25px"></polygon><polygon points="375.34 394.82 368.28 392.79 365.34 392.76 372.38 394.8 375.34 394.82" style="fill:#fff;stroke:#2e353a;stroke-miterlimit:10;stroke-width:0.25px"></polygon><polygon points="384.08 394.91 376.97 392.9 374.1 392.86 381.18 394.88 384.08 394.91" style="fill:#fff;stroke:#2e353a;stroke-miterlimit:10;stroke-width:0.25px"></polygon><polygon points="372.38 394.8 365.34 392.76 362.38 392.72 369.41 394.77 372.38 394.8" style="fill:#fff;stroke:#2e353a;stroke-miterlimit:10;stroke-width:0.25px"></polygon><polygon points="369.41 394.77 362.38 392.72 359.4 392.69 366.41 394.74 369.41 394.77" style="fill:#fff;stroke:#2e353a;stroke-miterlimit:10;stroke-width:0.25px"></polygon><polygon points="381.18 394.88 374.1 392.86 371.2 392.83 378.27 394.85 381.18 394.88" style="fill:#fff;stroke:#2e353a;stroke-miterlimit:10;stroke-width:0.25px"></polygon><polygon points="398.24 395.04 391.07 393.06 388.29 393.03 395.45 395.02 398.24 395.04" style="fill:#fff;stroke:#2e353a;stroke-miterlimit:10;stroke-width:0.25px"></polygon><polygon points="395.45 395.02 388.29 393.03 385.49 393 392.63 394.99 395.45 395.02" style="fill:#fff;stroke:#2e353a;stroke-miterlimit:10;stroke-width:0.25px"></polygon><polygon points="389.8 394.96 382.67 392.96 379.83 392.93 386.95 394.94 389.8 394.96" style="fill:#fff;stroke:#2e353a;stroke-miterlimit:10;stroke-width:0.25px"></polygon><polygon points="416.08 400.75 413.24 400.74 410.37 400.73 407.48 400.72 404.57 400.71 401.64 400.71 398.69 400.7 395.71 400.69 392.71 400.69 389.7 400.68 386.65 400.67 393.77 402.75 396.82 402.75 399.86 402.75 402.87 402.75 405.85 402.75 408.82 402.75 411.76 402.75 414.68 402.75 417.58 402.75 420.46 402.75 423.32 402.75 416.08 400.75" style="fill:#fff;stroke:#2e353a;stroke-miterlimit:10;stroke-width:0.25px"></polygon><polygon points="392.63 394.99 385.49 393 382.67 392.96 389.8 394.96 392.63 394.99" style="fill:#fff;stroke:#2e353a;stroke-miterlimit:10;stroke-width:0.25px"></polygon><polygon points="331.06 390.69 331.06 392.73 384.2 408.68 384.22 406.06 331.06 390.69" style="fill:#fff;stroke:#2e353a;stroke-linecap:round;stroke-linejoin:round"></polygon><rect x="384.22" y="406.06" width="71.67" height="2.61" style="fill:#2e353a;stroke:#2e353a;stroke-linecap:round;stroke-linejoin:round"></rect><path d="M107.16,329.64h68a0,0,0,0,1,0,0v61.05a0,0,0,0,1,0,0h-68a1.62,1.62,0,0,1-1.62-1.62v-57.8A1.62,1.62,0,0,1,107.16,329.64Z" transform="translate(280.69 720.33) rotate(180)" style="fill:#fff;stroke:#2e353a;stroke-linecap:round;stroke-linejoin:round"></path><rect x="103.19" y="329.64" width="70.13" height="61.05" transform="translate(276.51 720.33) rotate(180)" style="fill:#2e353a;stroke:#2e353a;stroke-miterlimit:10"></rect><rect x="107.02" y="334.47" width="60.9" height="51.39" transform="translate(274.94 720.33) rotate(180)" style="fill:#fff;stroke:#2e353a;stroke-linecap:round;stroke-linejoin:round"></rect><polygon points="143.31 355.23 134.23 341.38 125.15 355.23 128.95 355.23 128.95 376.92 139.51 376.92 139.51 355.23 143.31 355.23" style="fill:#90CAF9"></polygon><polygon points="173.32 390.69 120.16 406.06 48.49 406.06 103.19 390.69 173.32 390.69" style="fill:#fff;stroke:#2e353a;stroke-linecap:round;stroke-linejoin:round"></polygon><polygon points="116.55 396.77 123.2 394.88 126.11 394.85 119.48 396.75 116.55 396.77" style="fill:#fff;stroke:#2e353a;stroke-miterlimit:10;stroke-width:0.25px"></polygon><polygon points="110.76 396.82 117.43 394.94 120.3 394.91 113.65 396.8 110.76 396.82" style="fill:#fff;stroke:#2e353a;stroke-miterlimit:10;stroke-width:0.25px"></polygon><polygon points="89.74 398.81 86.96 398.83 93.87 396.94 96.64 396.92 89.74 398.81" style="fill:#fff;stroke:#2e353a;stroke-miterlimit:10;stroke-width:0.25px"></polygon><polygon points="119.48 396.75 126.11 394.85 129.04 394.82 122.43 396.73 119.48 396.75" style="fill:#fff;stroke:#2e353a;stroke-miterlimit:10;stroke-width:0.25px"></polygon><polygon points="125.39 396.71 132 394.8 134.97 394.77 128.38 396.69 125.39 396.71" style="fill:#fff;stroke:#2e353a;stroke-miterlimit:10;stroke-width:0.25px"></polygon><polygon points="99.42 396.9 106.14 395.04 108.93 395.02 102.23 396.88 99.42 396.9" style="fill:#fff;stroke:#2e353a;stroke-miterlimit:10;stroke-width:0.25px"></polygon><polygon points="96.64 396.92 103.37 395.07 106.14 395.04 99.42 396.9 96.64 396.92" style="fill:#fff;stroke:#2e353a;stroke-miterlimit:10;stroke-width:0.25px"></polygon><polygon points="128.38 396.69 134.97 394.77 137.97 394.74 131.4 396.67 128.38 396.69" style="fill:#fff;stroke:#2e353a;stroke-miterlimit:10;stroke-width:0.25px"></polygon><polygon points="107.9 396.84 114.58 394.96 117.43 394.94 110.76 396.82 107.9 396.84" style="fill:#fff;stroke:#2e353a;stroke-miterlimit:10;stroke-width:0.25px"></polygon><polygon points="93.87 396.94 100.61 395.1 103.37 395.07 96.64 396.92 93.87 396.94" style="fill:#fff;stroke:#2e353a;stroke-miterlimit:10;stroke-width:0.25px"></polygon><polygon points="102.23 396.88 108.93 395.02 111.75 394.99 105.05 396.86 102.23 396.88" style="fill:#fff;stroke:#2e353a;stroke-miterlimit:10;stroke-width:0.25px"></polygon><polygon points="105.05 396.86 111.75 394.99 114.58 394.96 107.9 396.84 105.05 396.86" style="fill:#fff;stroke:#2e353a;stroke-miterlimit:10;stroke-width:0.25px"></polygon><polygon points="113.65 396.8 120.3 394.91 123.2 394.88 116.55 396.77 113.65 396.8" style="fill:#fff;stroke:#2e353a;stroke-miterlimit:10;stroke-width:0.25px"></polygon><polygon points="134.43 396.64 137.49 396.62 130.77 398.61 127.7 398.63 134.43 396.64" style="fill:#fff;stroke:#2e353a;stroke-miterlimit:10;stroke-width:0.25px"></polygon><polygon points="140.99 394.71 144.03 394.68 137.49 396.62 134.43 396.64 140.99 394.71" style="fill:#fff;stroke:#2e353a;stroke-miterlimit:10;stroke-width:0.25px"></polygon><polygon points="131.4 396.67 137.97 394.74 140.99 394.71 134.43 396.64 131.4 396.67" style="fill:#fff;stroke:#2e353a;stroke-miterlimit:10;stroke-width:0.25px"></polygon><polygon points="123.88 400.65 116.79 402.75 113.69 402.75 120.79 400.66 123.88 400.65" style="fill:#fff;stroke:#2e353a;stroke-miterlimit:10;stroke-width:0.25px"></polygon><polygon points="127.7 398.63 130.77 398.61 123.88 400.65 120.79 400.66 127.7 398.63" style="fill:#fff;stroke:#2e353a;stroke-miterlimit:10;stroke-width:0.25px"></polygon><polygon points="120.79 400.66 113.69 402.75 110.61 402.75 117.72 400.67 120.79 400.66" style="fill:#fff;stroke:#2e353a;stroke-miterlimit:10;stroke-width:0.25px"></polygon><polygon points="122.43 396.73 129.04 394.82 132 394.8 125.39 396.71 122.43 396.73" style="fill:#fff;stroke:#2e353a;stroke-miterlimit:10;stroke-width:0.25px"></polygon><polygon points="115.64 398.69 122.43 396.73 125.39 396.71 118.62 398.67 115.64 398.69" style="fill:#fff;stroke:#2e353a;stroke-miterlimit:10;stroke-width:0.25px"></polygon><polygon points="118.62 398.67 125.39 396.71 128.38 396.69 121.62 398.66 118.62 398.67" style="fill:#fff;stroke:#2e353a;stroke-miterlimit:10;stroke-width:0.25px"></polygon><polygon points="112.68 398.7 119.48 396.75 122.43 396.73 115.64 398.69 112.68 398.7" style="fill:#fff;stroke:#2e353a;stroke-miterlimit:10;stroke-width:0.25px"></polygon><polygon points="131.4 396.67 134.43 396.64 127.7 398.63 124.65 398.64 131.4 396.67" style="fill:#fff;stroke:#2e353a;stroke-miterlimit:10;stroke-width:0.25px"></polygon><polygon points="82.66 400.76 79.88 400.77 86.96 398.83 89.74 398.81 82.66 400.76" style="fill:#fff;stroke:#2e353a;stroke-miterlimit:10;stroke-width:0.25px"></polygon><polygon points="121.62 398.66 128.38 396.69 131.4 396.67 124.65 398.64 121.62 398.66" style="fill:#fff;stroke:#2e353a;stroke-miterlimit:10;stroke-width:0.25px"></polygon><polygon points="127.7 398.63 120.79 400.66 117.72 400.67 124.65 398.64 127.7 398.63" style="fill:#fff;stroke:#2e353a;stroke-miterlimit:10;stroke-width:0.25px"></polygon><polygon points="95.35 398.79 102.23 396.88 105.05 396.86 98.19 398.77 95.35 398.79" style="fill:#fff;stroke:#2e353a;stroke-miterlimit:10;stroke-width:0.25px"></polygon><polygon points="98.19 398.77 105.05 396.86 107.9 396.84 101.04 398.76 98.19 398.77" style="fill:#fff;stroke:#2e353a;stroke-miterlimit:10;stroke-width:0.25px"></polygon><polygon points="89.74 398.81 96.64 396.92 99.42 396.9 92.53 398.8 89.74 398.81" style="fill:#fff;stroke:#2e353a;stroke-miterlimit:10;stroke-width:0.25px"></polygon><polygon points="106.82 398.73 113.65 396.8 116.55 396.77 109.74 398.71 106.82 398.73" style="fill:#fff;stroke:#2e353a;stroke-miterlimit:10;stroke-width:0.25px"></polygon><polygon points="101.04 398.76 107.9 396.84 110.76 396.82 103.92 398.74 101.04 398.76" style="fill:#fff;stroke:#2e353a;stroke-miterlimit:10;stroke-width:0.25px"></polygon><polygon points="103.92 398.74 110.76 396.82 113.65 396.8 106.82 398.73 103.92 398.74" style="fill:#fff;stroke:#2e353a;stroke-miterlimit:10;stroke-width:0.25px"></polygon><polygon points="109.74 398.71 116.55 396.77 119.48 396.75 112.68 398.7 109.74 398.71" style="fill:#fff;stroke:#2e353a;stroke-miterlimit:10;stroke-width:0.25px"></polygon><polygon points="101.04 398.76 94.01 400.73 91.14 400.74 98.19 398.77 101.04 398.76" style="fill:#fff;stroke:#2e353a;stroke-miterlimit:10;stroke-width:0.25px"></polygon><polygon points="98.19 398.77 91.14 400.74 88.3 400.75 95.35 398.79 98.19 398.77" style="fill:#fff;stroke:#2e353a;stroke-miterlimit:10;stroke-width:0.25px"></polygon><polygon points="124.65 398.64 117.72 400.67 114.68 400.68 121.62 398.66 124.65 398.64" style="fill:#fff;stroke:#2e353a;stroke-miterlimit:10;stroke-width:0.25px"></polygon><polygon points="95.35 398.79 88.3 400.75 85.47 400.75 92.53 398.8 95.35 398.79" style="fill:#fff;stroke:#2e353a;stroke-miterlimit:10;stroke-width:0.25px"></polygon><polygon points="106.82 398.73 99.81 400.71 96.9 400.72 103.92 398.74 106.82 398.73" style="fill:#fff;stroke:#2e353a;stroke-miterlimit:10;stroke-width:0.25px"></polygon><polygon points="92.53 398.8 85.47 400.75 82.66 400.76 89.74 398.81 92.53 398.8" style="fill:#fff;stroke:#2e353a;stroke-miterlimit:10;stroke-width:0.25px"></polygon><polygon points="103.92 398.74 96.9 400.72 94.01 400.73 101.04 398.76 103.92 398.74" style="fill:#fff;stroke:#2e353a;stroke-miterlimit:10;stroke-width:0.25px"></polygon><polygon points="118.62 398.67 111.67 400.69 108.67 400.69 115.64 398.69 118.62 398.67" style="fill:#fff;stroke:#2e353a;stroke-miterlimit:10;stroke-width:0.25px"></polygon><polygon points="121.62 398.66 114.68 400.68 111.67 400.69 118.62 398.67 121.62 398.66" style="fill:#fff;stroke:#2e353a;stroke-miterlimit:10;stroke-width:0.25px"></polygon><polygon points="109.74 398.71 102.74 400.71 99.81 400.71 106.82 398.73 109.74 398.71" style="fill:#fff;stroke:#2e353a;stroke-miterlimit:10;stroke-width:0.25px"></polygon><polygon points="112.68 398.7 105.69 400.7 102.74 400.71 109.74 398.71 112.68 398.7" style="fill:#fff;stroke:#2e353a;stroke-miterlimit:10;stroke-width:0.25px"></polygon><polygon points="115.64 398.69 108.67 400.69 105.69 400.7 112.68 398.7 115.64 398.69" style="fill:#fff;stroke:#2e353a;stroke-miterlimit:10;stroke-width:0.25px"></polygon><polygon points="92.53 398.8 99.42 396.9 102.23 396.88 95.35 398.79 92.53 398.8" style="fill:#fff;stroke:#2e353a;stroke-miterlimit:10;stroke-width:0.25px"></polygon><polygon points="140.99 394.71 147.98 392.65 151 392.62 144.03 394.68 140.99 394.71" style="fill:#fff;stroke:#2e353a;stroke-miterlimit:10;stroke-width:0.25px"></polygon><polygon points="144.03 394.68 146.86 394.65 140.33 396.6 137.49 396.62 144.03 394.68" style="fill:#fff;stroke:#2e353a;stroke-miterlimit:10;stroke-width:0.25px"></polygon><polygon points="151 392.62 153.81 392.58 146.86 394.65 144.03 394.68 151 392.62" style="fill:#fff;stroke:#2e353a;stroke-miterlimit:10;stroke-width:0.25px"></polygon><polygon points="137.49 396.62 140.33 396.6 133.63 398.6 130.77 398.61 137.49 396.62" style="fill:#fff;stroke:#2e353a;stroke-miterlimit:10;stroke-width:0.25px"></polygon><polygon points="130.77 398.61 133.63 398.6 126.75 400.65 123.88 400.65 130.77 398.61" style="fill:#fff;stroke:#2e353a;stroke-miterlimit:10;stroke-width:0.25px"></polygon><polygon points="123.88 400.65 126.75 400.65 119.68 402.75 116.79 402.75 123.88 400.65" style="fill:#fff;stroke:#2e353a;stroke-miterlimit:10;stroke-width:0.25px"></polygon><polygon points="91.12 396.96 84.2 398.84 81.78 398.86 88.71 396.98 91.12 396.96" style="fill:#fff;stroke:#2e353a;stroke-miterlimit:10;stroke-width:0.25px"></polygon><polygon points="77.11 400.77 74.68 400.78 81.78 398.86 84.2 398.84 77.11 400.77" style="fill:#fff;stroke:#2e353a;stroke-miterlimit:10;stroke-width:0.25px"></polygon><polygon points="69.83 402.75 67.4 402.75 74.68 400.78 77.11 400.77 69.83 402.75" style="fill:#fff;stroke:#2e353a;stroke-miterlimit:10;stroke-width:0.25px"></polygon><polygon points="117.43 394.94 124.55 392.93 127.41 392.9 120.3 394.91 117.43 394.94" style="fill:#fff;stroke:#2e353a;stroke-miterlimit:10;stroke-width:0.25px"></polygon><polygon points="91.12 396.96 88.71 396.98 95.47 395.15 97.87 395.12 91.12 396.96" style="fill:#fff;stroke:#2e353a;stroke-miterlimit:10;stroke-width:0.25px"></polygon><polygon points="79.88 400.77 77.11 400.77 84.2 398.84 86.96 398.83 79.88 400.77" style="fill:#fff;stroke:#2e353a;stroke-miterlimit:10;stroke-width:0.25px"></polygon><polygon points="137.97 394.74 144.98 392.69 147.98 392.65 140.99 394.71 137.97 394.74" style="fill:#fff;stroke:#2e353a;stroke-miterlimit:10;stroke-width:0.25px"></polygon><polygon points="100.61 395.1 93.87 396.94 91.12 396.96 97.87 395.12 100.61 395.1" style="fill:#fff;stroke:#2e353a;stroke-miterlimit:10;stroke-width:0.25px"></polygon><polygon points="95.47 395.15 102.69 393.19 105.08 393.16 97.87 395.12 95.47 395.15" style="fill:#fff;stroke:#2e353a;stroke-miterlimit:10;stroke-width:0.25px"></polygon><polygon points="97.87 395.12 105.08 393.16 107.81 393.13 100.61 395.1 97.87 395.12" style="fill:#fff;stroke:#2e353a;stroke-miterlimit:10;stroke-width:0.25px"></polygon><polygon points="88.3 400.75 81.06 402.75 78.22 402.75 85.47 400.75 88.3 400.75" style="fill:#fff;stroke:#2e353a;stroke-miterlimit:10;stroke-width:0.25px"></polygon><polygon points="72.61 402.75 69.83 402.75 77.11 400.77 79.88 400.77 72.61 402.75" style="fill:#fff;stroke:#2e353a;stroke-miterlimit:10;stroke-width:0.25px"></polygon><polygon points="100.61 395.1 107.81 393.13 110.55 393.1 103.37 395.07 100.61 395.1" style="fill:#fff;stroke:#2e353a;stroke-miterlimit:10;stroke-width:0.25px"></polygon><polygon points="82.66 400.76 75.41 402.75 72.61 402.75 79.88 400.77 82.66 400.76" style="fill:#fff;stroke:#2e353a;stroke-miterlimit:10;stroke-width:0.25px"></polygon><polygon points="85.47 400.75 78.22 402.75 75.41 402.75 82.66 400.76 85.47 400.75" style="fill:#fff;stroke:#2e353a;stroke-miterlimit:10;stroke-width:0.25px"></polygon><polygon points="86.96 398.83 84.2 398.84 91.12 396.96 93.87 396.94 86.96 398.83" style="fill:#fff;stroke:#2e353a;stroke-miterlimit:10;stroke-width:0.25px"></polygon><polygon points="126.11 394.85 133.18 392.83 136.1 392.79 129.04 394.82 126.11 394.85" style="fill:#fff;stroke:#2e353a;stroke-miterlimit:10;stroke-width:0.25px"></polygon><polygon points="103.37 395.07 110.55 393.1 113.31 393.06 106.14 395.04 103.37 395.07" style="fill:#fff;stroke:#2e353a;stroke-miterlimit:10;stroke-width:0.25px"></polygon><polygon points="129.04 394.82 136.1 392.79 139.04 392.76 132 394.8 129.04 394.82" style="fill:#fff;stroke:#2e353a;stroke-miterlimit:10;stroke-width:0.25px"></polygon><polygon points="120.3 394.91 127.41 392.9 130.28 392.86 123.2 394.88 120.3 394.91" style="fill:#fff;stroke:#2e353a;stroke-miterlimit:10;stroke-width:0.25px"></polygon><polygon points="132 394.8 139.04 392.76 142 392.72 134.97 394.77 132 394.8" style="fill:#fff;stroke:#2e353a;stroke-miterlimit:10;stroke-width:0.25px"></polygon><polygon points="134.97 394.77 142 392.72 144.98 392.69 137.97 394.74 134.97 394.77" style="fill:#fff;stroke:#2e353a;stroke-miterlimit:10;stroke-width:0.25px"></polygon><polygon points="123.2 394.88 130.28 392.86 133.18 392.83 126.11 394.85 123.2 394.88" style="fill:#fff;stroke:#2e353a;stroke-miterlimit:10;stroke-width:0.25px"></polygon><polygon points="106.14 395.04 113.31 393.06 116.09 393.03 108.93 395.02 106.14 395.04" style="fill:#fff;stroke:#2e353a;stroke-miterlimit:10;stroke-width:0.25px"></polygon><polygon points="108.93 395.02 116.09 393.03 118.89 393 111.75 394.99 108.93 395.02" style="fill:#fff;stroke:#2e353a;stroke-miterlimit:10;stroke-width:0.25px"></polygon><polygon points="114.58 394.96 121.71 392.96 124.55 392.93 117.43 394.94 114.58 394.96" style="fill:#fff;stroke:#2e353a;stroke-miterlimit:10;stroke-width:0.25px"></polygon><polygon points="88.3 400.75 91.14 400.74 94.01 400.73 96.9 400.72 99.81 400.71 102.74 400.71 105.69 400.7 108.67 400.69 111.67 400.69 114.68 400.68 117.72 400.67 110.61 402.75 107.56 402.75 104.52 402.75 101.52 402.75 98.53 402.75 95.56 402.75 92.62 402.75 89.7 402.75 86.8 402.75 83.92 402.75 81.06 402.75 88.3 400.75" style="fill:#fff;stroke:#2e353a;stroke-miterlimit:10;stroke-width:0.25px"></polygon><polygon points="111.75 394.99 118.89 393 121.71 392.96 114.58 394.96 111.75 394.99" style="fill:#fff;stroke:#2e353a;stroke-miterlimit:10;stroke-width:0.25px"></polygon><polygon points="173.32 390.69 173.32 392.73 120.17 408.68 120.16 406.06 173.32 390.69" style="fill:#fff;stroke:#2e353a;stroke-linecap:round;stroke-linejoin:round"></polygon><rect x="48.49" y="406.06" width="71.67" height="2.61" transform="translate(168.65 814.74) rotate(180)" style="fill:#2e353a;stroke:#2e353a;stroke-linecap:round;stroke-linejoin:round"></rect></g></svg>
